<?xml version="1.0" standalone="no"?>
<!DOCTYPE svg PUBLIC "-//W3C//DTD SVG 1.1//EN" "http://www.w3.org/Graphics/SVG/1.1/DTD/svg11.dtd" >
<svg xmlns="http://www.w3.org/2000/svg">
<metadata>Generated by IcoMoon</metadata>
<defs>
<font id="icomoon" horiz-adv-x="1024">
<font-face units-per-em="1024" ascent="960" descent="-64" />
<missing-glyph horiz-adv-x="1024" />
<glyph unicode="&#x20;" horiz-adv-x="512" d="" />
<glyph unicode="&#x3c;" glyph-name="chevron-left" d="M585.574 741.582c-21.402-20.89-230.502-240.436-230.502-240.436-11.418-11.162-17.1-25.754-17.1-40.346s5.682-29.184 17.1-40.346c0 0 209.102-219.546 230.502-240.384 21.402-20.89 59.904-22.322 82.74 0 22.784 22.272 24.576 53.35-0.052 80.64l-191.846 200.090 191.846 200.090c24.626 27.34 22.836 58.418 0.052 80.69-22.886 22.272-61.39 20.89-82.74 0z" />
<glyph unicode="&#x3e;" glyph-name="chevron-right" d="M438.426 735.182c21.402-20.89 230.502-240.436 230.502-240.436 11.47-11.162 17.152-25.754 17.152-40.346s-5.682-29.184-17.152-40.346c0 0-209.1-219.546-230.502-240.384-21.402-20.89-59.854-22.322-82.738 0-22.834 22.272-24.628 53.35 0 80.64l191.898 200.090-191.846 200.090c-24.628 27.342-22.834 58.418 0 80.692 22.834 22.272 61.338 20.89 82.688 0z" />
<glyph unicode="&#x5e;" glyph-name="chevron-up" d="M792.73 387.226c-20.838 21.402-240.384 230.502-240.384 230.502-11.162 11.418-25.754 17.152-40.346 17.152-14.644 0-29.236-5.734-40.346-17.152 0 0-219.546-209.102-240.436-230.502-20.838-21.402-22.272-59.904 0-82.74 22.324-22.784 53.402-24.626 80.69 0l200.090 191.846 200.038-191.846c27.342-24.626 58.47-22.784 80.692 0 22.322 22.886 20.942 61.39 0 82.74z" />
<glyph unicode="&#x78;" glyph-name="close" d="M1014.662 137.34c-0.004 0.004-0.008 0.008-0.012 0.010l-310.644 310.65 310.644 310.65c0.004 0.004 0.008 0.006 0.012 0.010 3.344 3.346 5.762 7.254 7.312 11.416 4.246 11.376 1.824 24.682-7.324 33.83l-146.746 146.746c-9.148 9.146-22.45 11.566-33.828 7.32-4.16-1.55-8.070-3.968-11.418-7.31 0-0.004-0.004-0.006-0.008-0.010l-310.648-310.652-310.648 310.65c-0.004 0.004-0.006 0.006-0.010 0.010-3.346 3.342-7.254 5.76-11.414 7.31-11.38 4.248-24.682 1.826-33.83-7.32l-146.748-146.748c-9.148-9.148-11.568-22.452-7.322-33.828 1.552-4.16 3.97-8.072 7.312-11.416 0.004-0.002 0.006-0.006 0.010-0.010l310.65-310.648-310.65-310.652c-0.002-0.004-0.006-0.006-0.008-0.010-3.342-3.346-5.76-7.254-7.314-11.414-4.248-11.376-1.826-24.682 7.322-33.83l146.748-146.746c9.15-9.148 22.452-11.568 33.83-7.322 4.16 1.552 8.070 3.97 11.416 7.312 0.002 0.004 0.006 0.006 0.010 0.010l310.648 310.65 310.648-310.65c0.004-0.002 0.008-0.006 0.012-0.008 3.348-3.344 7.254-5.762 11.414-7.314 11.378-4.246 24.684-1.826 33.828 7.322l146.746 146.748c9.148 9.148 11.57 22.454 7.324 33.83-1.552 4.16-3.97 8.068-7.314 11.414z" />
<glyph unicode="&#x7c;" glyph-name="chevron-down" d="M792.73 534.374c-20.838-21.402-240.384-230.554-240.384-230.554-11.162-11.418-25.754-17.1-40.346-17.1-14.644 0-29.236 5.682-40.346 17.1 0 0-219.546 209.152-240.436 230.554-20.838 21.402-22.272 59.852 0 82.74 22.324 22.834 53.402 24.626 80.69 0l200.090-191.898 200.038 191.846c27.342 24.628 58.47 22.836 80.692 0 22.322-22.834 20.942-61.338 0-82.688z" />
<glyph unicode="&#xe600;" glyph-name="home" d="M1017.382 337.174l-452.050 499.634c-14.051 15.533-32.992 24.086-53.333 24.086-0.002 0 0 0 0 0-20.339 0-39.282-8.555-53.334-24.086l-452.050-499.634c-9.485-10.485-8.675-26.674 1.808-36.158 4.899-4.432 11.043-6.616 17.168-6.616 6.982 0 13.938 2.838 18.992 8.426l109.016 120.491v-410.517c0-42.347 34.453-76.8 76.8-76.8h563.2c42.347 0 76.8 34.453 76.8 76.8v410.517l109.018-120.493c9.485-10.483 25.674-11.296 36.158-1.808 10.483 9.485 11.293 25.675 1.806 36.158zM614.4-12.8h-204.8v230.4c0 14.115 11.485 25.6 25.6 25.6h153.6c14.115 0 25.6-11.485 25.6-25.6v-230.4zM819.2 12.8c0-14.115-11.485-25.6-25.6-25.6h-128v230.4c0 42.349-34.451 76.8-76.8 76.8h-153.6c-42.347 0-76.8-34.451-76.8-76.8v-230.4h-128c-14.115 0-25.6 11.485-25.6 25.6v467.106l291.832 322.552c4.222 4.667 9.68 7.237 15.368 7.237s11.146-2.57 15.366-7.235l291.834-322.552v-467.107z" />
<glyph unicode="&#xe603;" glyph-name="home4" d="M25.592 345.6c-6.125 0-12.269 2.184-17.166 6.618-10.485 9.485-11.294 25.674-1.808 36.158l452.048 499.632c14.053 15.531 32.995 24.086 53.334 24.086 0 0 0 0 0 0 20.339 0 39.28-8.554 53.333-24.086l151.802-167.781-0.334 60.432c-0.037 6.814 2.643 13.362 7.448 18.194 4.805 4.83 11.338 7.547 18.152 7.547h102.4c14.139 0 25.6-11.462 25.6-25.6v-229.97l146.982-162.456c9.486-10.485 8.677-26.674-1.808-36.158-10.485-9.488-26.674-8.677-36.158 1.808l-153.6 169.766c-4.259 4.707-6.618 10.829-6.618 17.176v214.234h-51.058l0.563-101.691c0.058-10.613-6.437-20.162-16.331-24.005-9.894-3.84-21.133-1.182-28.251 6.688l-196.755 217.467c-4.222 4.667-9.68 7.235-15.366 7.235s-11.146-2.57-15.368-7.237l-452.048-499.632c-5.053-5.587-12.010-8.426-18.992-8.426zM793.6-64h-204.8c-14.139 0-25.6 11.461-25.6 25.6v179.2h-102.4v-179.2c0-14.139-11.462-25.6-25.6-25.6h-204.8c-42.347 0-76.8 34.453-76.8 76.8v409.6c0 14.139 11.462 25.6 25.6 25.6s25.6-11.461 25.6-25.6v-409.6c0-14.115 11.485-25.6 25.6-25.6h179.2v179.2c0 14.139 11.462 25.6 25.6 25.6h153.6c14.139 0 25.6-11.461 25.6-25.6v-179.2h179.2c14.115 0 25.6 11.485 25.6 25.6v409.6c0 14.139 11.461 25.6 25.6 25.6s25.6-11.461 25.6-25.6v-409.6c0-42.347-34.453-76.8-76.8-76.8z" />
<glyph unicode="&#xe606;" glyph-name="bathtub" d="M844.8-64h-51.2c-14.139 0-25.6 11.461-25.6 25.6s11.461 25.6 25.6 25.6h51.2c14.139 0 25.6-11.461 25.6-25.6s-11.461-25.6-25.6-25.6zM230.4-64h-51.2c-14.138 0-25.6 11.461-25.6 25.6s11.462 25.6 25.6 25.6h51.2c14.138 0 25.6-11.461 25.6-25.6s-11.462-25.6-25.6-25.6zM1024 320c0 42.349-34.451 76.8-76.8 76.8h-793.6v486.4c0 14.115 11.485 25.6 25.6 25.6h76.8c7.288 0 20.446-5.451 25.6-10.603l6.43-6.43c-47.582-65.048-42.016-157.106 16.707-215.832 4.8-4.802 11.312-7.499 18.102-7.499s13.301 2.698 18.102 7.499l199.12 199.122c9.998 9.997 9.998 26.206 0 36.203-31.429 31.43-73.216 48.739-117.662 48.739-35.794 0-69.856-11.232-98.178-32.016l-6.419 6.418c-14.834 14.834-40.826 25.6-61.803 25.6h-76.8c-42.347 0-76.8-34.453-76.8-76.8v-486.4h-25.6c-42.347 0-76.8-34.451-76.8-76.8 0-33.373 21.403-61.829 51.2-72.397v-132.403c0-70.579 57.421-128 128-128h665.6c70.579 0 128 57.421 128 128v132.403c29.797 10.566 51.2 39.024 51.2 72.397zM483.749 891.152l-158.883-158.883c-27.978 44.488-22.621 104.093 16.075 142.789 21.76 21.758 50.69 33.741 81.459 33.741 22.050 0 43.152-6.154 61.349-17.646zM844.8 38.4h-665.6c-42.347 0-76.8 34.451-76.8 76.8v128h819.2v-128c0-42.349-34.451-76.8-76.8-76.8zM947.2 294.4h-870.4c-14.115 0-25.6 11.485-25.6 25.6s11.485 25.6 25.6 25.6h870.4c14.115 0 25.6-11.485 25.6-25.6s-11.485-25.6-25.6-25.6zM512 627.2c0-14.138-11.462-25.6-25.6-25.6s-25.6 11.462-25.6 25.6c0 14.138 11.462 25.6 25.6 25.6s25.6-11.462 25.6-25.6zM512 729.6c0-14.138-11.462-25.6-25.6-25.6s-25.6 11.462-25.6 25.6c0 14.138 11.462 25.6 25.6 25.6s25.6-11.462 25.6-25.6zM614.4 729.6c0-14.138-11.462-25.6-25.6-25.6s-25.6 11.462-25.6 25.6c0 14.138 11.462 25.6 25.6 25.6s25.6-11.462 25.6-25.6zM614.4 627.2c0-14.138-11.462-25.6-25.6-25.6s-25.6 11.462-25.6 25.6c0 14.138 11.462 25.6 25.6 25.6s25.6-11.462 25.6-25.6zM716.8 729.6c0-14.138-11.462-25.6-25.6-25.6s-25.6 11.462-25.6 25.6c0 14.138 11.462 25.6 25.6 25.6s25.6-11.462 25.6-25.6zM512 524.8c0-14.138-11.462-25.6-25.6-25.6s-25.6 11.462-25.6 25.6c0 14.138 11.462 25.6 25.6 25.6s25.6-11.462 25.6-25.6zM716.8 627.2c0-14.138-11.462-25.6-25.6-25.6s-25.6 11.462-25.6 25.6c0 14.138 11.462 25.6 25.6 25.6s25.6-11.462 25.6-25.6zM614.4 524.8c0-14.138-11.462-25.6-25.6-25.6s-25.6 11.462-25.6 25.6c0 14.138 11.462 25.6 25.6 25.6s25.6-11.462 25.6-25.6z" />
<glyph unicode="&#xe608;" glyph-name="play" d="M512 960c-282.77 0-512-229.23-512-512s229.23-512 512-512 512 229.23 512 512-229.23 512-512 512zM512 32c-229.75 0-416 186.25-416 416s186.25 416 416 416 416-186.25 416-416-186.25-416-416-416zM384 672l384-224-384-224z" />
<glyph unicode="&#xe60b;" glyph-name="city" d="M460.8 448h51.2v-51.2h-51.2v51.2zM563.2 448h51.2v-51.2h-51.2v51.2zM665.6 448h51.2v-51.2h-51.2v51.2zM768 448h51.2v-51.2h-51.2v51.2zM460.8 294.4h51.2v-51.2h-51.2v51.2zM563.2 294.4h51.2v-51.2h-51.2v51.2zM665.6 294.4h51.2v-51.2h-51.2v51.2zM768 294.4h51.2v-51.2h-51.2v51.2zM460.8 140.8h51.2v-51.2h-51.2v51.2zM563.2 140.8h51.2v-51.2h-51.2v51.2zM665.6 140.8h51.2v-51.2h-51.2v51.2zM768 140.8h51.2v-51.2h-51.2v51.2zM896 601.6h-25.6v128c0 6.79-2.698 13.301-7.499 18.101l-94.901 94.902v91.797c0 14.138-11.461 25.6-25.6 25.6s-25.6-11.462-25.6-25.6v-91.797l-94.901-94.901c-4.802-4.8-7.499-11.312-7.499-18.101v-25.6h-102.4v127.998c0 14.138-11.462 25.6-25.6 25.6h-409.6c-14.138 0-25.6-11.462-25.6-25.6v-870.4c0-14.139 11.462-25.6 25.6-25.6h819.2c14.139 0 25.6 11.461 25.6 25.6v614.4c0 14.138-11.461 25.6-25.6 25.6zM665.6 718.997l76.8 76.8 76.8-76.8v-117.397h-51.2v76.8c0 14.138-11.461 25.6-25.6 25.6h-76.8v14.997zM716.8 652.8v-51.2h-204.8v51.2h204.8zM358.4 576v-588.8h-256v819.2h358.4v-204.8h-76.8c-14.138 0-25.6-11.462-25.6-25.6zM870.4-12.8h-460.8v563.2h460.8v-563.2zM358.4 755.2h51.2v-102.4h-51.2v102.4zM256 755.2h51.2v-102.4h-51.2v102.4zM153.6 755.2h51.2v-102.4h-51.2v102.4zM153.6 601.6h51.2v-102.4h-51.2v102.4zM256 601.6h51.2v-102.4h-51.2v102.4zM153.6 448h51.2v-102.4h-51.2v102.4zM256 448h51.2v-102.4h-51.2v102.4zM153.6 294.4h51.2v-102.4h-51.2v102.4zM256 294.4h51.2v-102.4h-51.2v102.4zM153.6 140.8h51.2v-102.4h-51.2v102.4zM256 140.8h51.2v-102.4h-51.2v102.4z" />
<glyph unicode="&#xe60c;" glyph-name="apartment" d="M716.8 652.8h51.2v-51.2h-51.2v51.2zM716.8 550.4h51.2v-51.2h-51.2v51.2zM716.8 448h51.2v-51.2h-51.2v51.2zM716.8 345.6h51.2v-51.2h-51.2v51.2zM716.8 140.8h51.2v-51.2h-51.2v51.2zM716.8 243.2h51.2v-51.2h-51.2v51.2zM307.2 652.8h51.2v-51.2h-51.2v51.2zM307.2 550.4h51.2v-51.2h-51.2v51.2zM307.2 448h51.2v-51.2h-51.2v51.2zM307.2 345.6h51.2v-51.2h-51.2v51.2zM307.2 140.8h51.2v-51.2h-51.2v51.2zM307.2 243.2h51.2v-51.2h-51.2v51.2zM204.8 652.8h51.2v-51.2h-51.2v51.2zM204.8 550.4h51.2v-51.2h-51.2v51.2zM204.8 448h51.2v-51.2h-51.2v51.2zM204.8 345.6h51.2v-51.2h-51.2v51.2zM204.8 140.8h51.2v-51.2h-51.2v51.2zM204.8 243.2h51.2v-51.2h-51.2v51.2zM409.6 652.8h51.2v-51.2h-51.2v51.2zM409.6 550.4h51.2v-51.2h-51.2v51.2zM409.6 448h51.2v-51.2h-51.2v51.2zM409.6 345.6h51.2v-51.2h-51.2v51.2zM409.6 140.8h51.2v-51.2h-51.2v51.2zM409.6 243.2h51.2v-51.2h-51.2v51.2zM947.2-12.8h-25.6v691.2c0 39.058-29.024 79.326-66.077 91.677l-241.123 80.374v83.949c0 8.093-3.827 15.709-10.318 20.539-6.493 4.829-14.888 6.306-22.637 3.981l-462.96-138.886c-37.73-11.32-67.285-51.043-67.285-90.434v-742.4h-25.6c-14.138 0-25.6-11.461-25.6-25.6s11.462-25.6 25.6-25.6h921.6c14.139 0 25.6 11.461 25.6 25.6s-11.461 25.6-25.6 25.6zM839.333 721.504c16.259-5.419 31.067-25.965 31.067-43.104v-691.2h-256v809.282l224.933-74.978zM102.4 729.6c0 16.827 14.678 36.557 30.797 41.392l430.003 129.002v-912.794h-460.8v742.4z" />
<glyph unicode="&#xe60d;" glyph-name="pencil" d="M978.101 914.102c-28.77 28.768-67.018 44.611-107.701 44.611-40.685 0-78.933-15.843-107.701-44.611l-652.8-652.8c-2.645-2.645-4.678-5.837-5.957-9.354l-102.4-281.6c-3.4-9.347-1.077-19.818 5.957-26.85 4.885-4.888 11.43-7.499 18.104-7.499 2.933 0 5.891 0.502 8.744 1.541l281.6 102.4c3.515 1.28 6.709 3.312 9.354 5.958l652.8 652.8c28.768 28.768 44.613 67.018 44.613 107.702s-15.843 78.933-44.613 107.701zM293.114 86.117l-224.709-81.71 81.712 224.707 566.683 566.683 142.997-142.997-566.683-566.683zM941.899 734.902l-45.899-45.899-142.997 142.997 45.899 45.899c19.098 19.098 44.49 29.614 71.498 29.614s52.4-10.518 71.499-29.616c19.098-19.098 29.616-44.49 29.616-71.498s-10.52-52.4-29.616-71.498z" />
<glyph unicode="&#xe60f;" glyph-name="pen" d="M1002.101 938.102c-14.312 14.314-33.55 21.57-57.178 21.57-38.552 0-90.39-20.173-154.691-60.096-20.602 21.781-59.752 55.149-109.102 59.157-39.395 3.197-76.557-12.355-110.432-46.23-71.957-71.957-107.366-159.792-130.798-217.914-7.962-19.75-17.87-44.333-22.802-49.395-1.678-1.678-6.768-6.766-15.546 0.642-10.034 9.461-25.837 9.282-35.654-0.533-9.998-9.998-9.998-26.206 0-36.203 4.194-4.195 14.976-12.326 28.786-16.2 5.552-1.558 11.064-2.328 16.469-2.328 6.491 0 12.826 1.125 18.893 3.314-7.027-7.202-14.042-14.453-21.035-21.757-180.053-188.078-381.962-446.123-408.661-606.318-1.36-8.157 1.304-16.466 7.149-22.31 4.84-4.842 11.37-7.499 18.102-7.499 1.398 0 2.806 0.114 4.21 0.349 66.966 11.162 155.259 53.531 262.421 125.934 94.797 64.046 199.966 148.87 304.139 245.298 101.602 94.045 194.278 191.611 268.010 282.152 55.093 67.65 125.874 164.242 150.224 240.221 15.402 48.064 11.195 84.451-12.502 108.149zM606.901 876.299c23.026 23.026 45.891 33.309 69.89 31.418 28.702-2.251 53.931-21.411 69.893-36.875-12.624-8.782-25.642-18.197-39.067-28.269-72.926-54.71-155.656-127.411-238.080-208.931 5.494 11.168 11.082 25.010 17.853 41.803 21.877 54.267 54.936 136.277 119.512 200.854zM155.434 179.563l88.171-88.171c-69.91-45.646-132.29-78.139-182.782-94.581 16.483 50.515 49.075 112.971 94.611 182.752zM561.589 345.154c-96.040-88.899-189.934-165.266-274.792-224.547l-102.163 102.165c67.64 96.896 157.245 205.195 261.362 313.95 120.925 126.312 240.387 230.635 335.994 296.29l114.899-114.902c-73.266-106.797-193.818-241.995-335.299-372.955zM965.843 845.578c-7.579-23.651-21.382-51.859-40.506-83.512l-99.403 99.403c50.074 30.282 91.147 47.003 118.989 47.003 14.4 0 19.349-4.949 20.974-6.574 11.858-11.856 5.056-40.376-0.054-56.32z" />
<glyph unicode="&#xe610;" glyph-name="pencil3" d="M998.4 652.8c0 141.158-114.84 256-256 256-38.574 0-75.664-8.374-110.234-24.89-2.701-1.29-5.048-3.010-7.050-5.013l-0.016 0.016-540.803-540.813c-3.917-3.917-6.458-8.998-7.24-14.482l-51.2-358.4c-1.139-7.976 1.542-16.026 7.242-21.722 4.834-4.834 11.362-7.499 18.099-7.499 1.203 0 2.413 0.085 3.622 0.258l358.4 51.2c5.483 0.782 10.565 3.323 14.482 7.24l540.413 540.4c0.014 0.013 0.027 0.027 0.038 0.038l0.357 0.357-0.005 0.005c2.002 2.002 3.71 4.362 5.002 7.061 16.518 34.576 24.893 71.666 24.893 110.243zM947.2 652.8c0-29.456-6.104-57.8-18.122-84.328l-58.89-58.89c-5.36 147.034-123.971 265.646-271.006 271.006l58.891 58.891c26.528 12.016 54.874 18.12 84.326 18.12 112.926 0 204.8-91.872 204.8-204.8zM102.659 140.794l21.68 151.766c9.675 1.222 19.464 1.84 29.261 1.84 127.043 0 230.4-103.357 230.4-230.4 0-9.797-0.624-19.584-1.846-29.261l-151.76-21.68c-0.141 70.374-57.36 127.594-127.734 127.734zM543.8 725.203c14.741 2.915 29.842 4.397 45 4.397 54.318 0 104.298-18.906 143.73-50.467l-398.83-398.83c-46.368 38.674-105.312 62.736-169.709 65.086l379.81 379.814zM369.904 244.099l398.829 398.83c31.562-39.432 50.467-89.411 50.467-143.73 0-15.155-1.483-30.258-4.397-45.002l-379.814-379.806c-2.349 64.395-26.413 123.339-65.085 169.707zM95.298 89.264c2.354 0.214 4.722 0.336 7.102 0.336 42.347 0 76.8-34.451 76.8-76.8 0-2.381-0.122-4.749-0.336-7.101l-97.494-13.928 13.928 97.493z" />
<glyph unicode="&#xe613;" glyph-name="pencil5" d="M978.099 914.102c-28.768 28.768-67.016 44.611-107.699 44.611-40.685 0-78.933-15.843-107.699-44.611l-499.2-499.2c-2.645-2.645-4.678-5.837-5.957-9.357l-102.4-281.6c-3.4-9.347-1.077-19.818 5.957-26.848 4.885-4.89 11.43-7.501 18.104-7.501 2.933 0 5.891 0.501 8.744 1.541l281.6 102.4c3.515 1.28 6.709 3.312 9.354 5.96l499.2 499.2c28.766 28.768 44.614 67.018 44.614 107.702-0.003 40.686-15.846 78.934-44.618 107.702zM446.714 239.717l-224.709-81.71 81.712 224.706 413.083 413.085 142.997-142.997-413.083-413.083zM941.901 734.902l-45.901-45.899-142.997 142.997 45.901 45.899c19.096 19.098 44.488 29.614 71.496 29.614s52.4-10.518 71.501-29.616c19.096-19.098 29.614-44.49 29.614-71.498s-10.52-52.4-29.614-71.498zM896-64h-819.2c-42.347 0-76.8 34.451-76.8 76.8v819.2c0 42.347 34.453 76.8 76.8 76.8h512c14.139 0 25.6-11.462 25.6-25.6s-11.461-25.6-25.6-25.6h-512c-14.115 0-25.6-11.485-25.6-25.6v-819.2c0-14.115 11.485-25.6 25.6-25.6h819.2c14.115 0 25.6 11.485 25.6 25.6v512c0 14.138 11.461 25.6 25.6 25.6s25.6-11.462 25.6-25.6v-512c0-42.349-34.451-76.8-76.8-76.8z" />
<glyph unicode="&#xe61e;" glyph-name="brush2" d="M179.2 89.6c-6.736 0-13.344 2.736-18.096 7.504-4.768 4.752-7.504 11.36-7.504 18.096s2.736 13.328 7.504 18.098c4.768 4.766 11.36 7.502 18.096 7.502s13.328-2.736 18.096-7.502c4.768-4.768 7.504-11.362 7.504-18.098s-2.736-13.344-7.504-18.096c-4.752-4.768-11.36-7.504-18.096-7.504zM954.699 476.706l-413.994 413.992c-14.466 14.467-33.752 22.434-54.306 22.434s-39.84-7.966-54.306-22.434l-260.394-260.392c-27.616-27.618-35.568-76.616-18.101-111.549l82.205-164.41c2.526-5.053 2.966-9.88 1.237-13.59-1.728-3.71-5.706-6.482-11.2-7.797-4.421-1.061-109.002-26.694-173.357-91.046-33.845-33.846-52.485-78.848-52.485-126.714s18.64-92.867 52.486-126.712c33.846-33.848 78.848-52.488 126.714-52.488 0.003 0-0.002 0 0 0 47.862 0 92.869 18.642 126.714 52.488 64.354 64.355 89.986 168.936 91.045 173.357 1.096 4.573 4.21 12.245 12.749 12.245 2.701 0 5.608-0.768 8.637-2.283l164.413-82.206c12.166-6.083 26.475-9.299 41.384-9.299 26.778 0 53.008 10.242 70.165 27.4l260.394 260.395c29.942 29.942 29.942 78.666 0 108.61zM658.101 143.904c-7.536-7.534-20.866-12.403-33.962-12.403-7.002 0-13.394 1.346-18.488 3.893l-164.408 82.206c-10.203 5.101-20.813 7.69-31.534 7.69-30.021 0-55.154-20.701-62.533-51.488-0.229-0.944-23.464-95.107-77.467-149.11-24.176-24.178-56.318-37.491-90.509-37.491s-66.334 13.314-90.51 37.491c-24.176 24.176-37.49 56.32-37.49 90.509s13.315 66.333 37.491 90.509c54.002 54 148.166 77.237 149.090 77.461 20.691 4.962 37.338 18.070 45.675 35.966 8.336 17.898 7.661 39.077-1.854 58.106l-82.205 164.411c-7.666 15.33-3.608 40.328 8.51 52.448l48.093 48.096 450.197-450.197-48.096-48.096zM918.496 404.299l-176.096-176.096-450.197 450.197 176.096 176.094c4.795 4.795 11.224 7.435 18.101 7.435s13.306-2.64 18.101-7.437l413.995-413.992c9.981-9.981 9.981-26.221 0-36.202z" />
<glyph unicode="&#xe61f;" glyph-name="spray" d="M560.64 546.864c-6.454 27.525-25.002 52.426-53.829 71.643-26.946 17.965-60.786 29.371-97.211 33.021v52.472h25.6c14.138 0 25.6 11.462 25.6 25.6v102.4c0 14.138-11.462 25.6-25.6 25.6h-102.4c-14.138 0-25.6-11.462-25.6-25.6v-102.4c0-14.138 11.462-25.6 25.6-25.6h25.6v-52.472c-36.426-3.648-70.266-15.056-97.211-33.021-28.827-19.218-47.374-44.12-53.829-71.643-31.125-9.81-53.76-38.941-53.76-73.264v-460.8c0-42.347 34.453-76.8 76.8-76.8h307.2c42.347 0 76.8 34.453 76.8 76.8v460.8c0 34.323-22.635 63.454-53.76 73.264zM358.4 806.4h51.2v-51.2h-51.2v51.2zM384 601.6c54.506 0 102.352-21.709 120.37-51.2h-240.739c18.018 29.491 65.864 51.2 120.37 51.2zM537.6-12.8h-307.2c-14.115 0-25.6 11.485-25.6 25.6v460.8c0 14.115 11.485 25.6 25.6 25.6h307.2c14.115 0 25.6-11.485 25.6-25.6v-76.8h-128c-14.138 0-25.6-11.461-25.6-25.6v-256c0-14.139 11.462-25.6 25.6-25.6h128v-76.8c0-14.115-11.485-25.6-25.6-25.6zM563.2 345.6v-204.8h-102.4v204.8h102.4zM537.6 755.2c-6.736 0-13.344 2.736-18.098 7.504-4.766 4.752-7.502 11.36-7.502 18.096s2.736 13.344 7.502 18.096c4.754 4.768 11.362 7.504 18.098 7.504s13.344-2.736 18.096-7.504c4.768-4.768 7.504-11.36 7.504-18.096s-2.736-13.328-7.504-18.096c-4.752-4.768-11.36-7.504-18.096-7.504zM640 806.4c-6.736 0-13.344 2.736-18.098 7.504-4.766 4.768-7.502 11.36-7.502 18.096s2.736 13.328 7.502 18.096c4.754 4.768 11.362 7.504 18.098 7.504s13.328-2.736 18.096-7.504c4.768-4.752 7.504-11.36 7.504-18.096s-2.736-13.344-7.504-18.096c-4.752-4.768-11.36-7.504-18.096-7.504zM742.4 857.6c-6.736 0-13.344 2.736-18.098 7.504-4.766 4.768-7.502 11.36-7.502 18.096s2.736 13.344 7.502 18.096c4.754 4.768 11.362 7.504 18.098 7.504s13.328-2.736 18.096-7.504c4.768-4.752 7.504-11.36 7.504-18.096s-2.736-13.344-7.504-18.096c-4.768-4.768-11.36-7.504-18.096-7.504zM742.4 755.2c-6.736 0-13.344 2.736-18.098 7.504-4.766 4.768-7.502 11.36-7.502 18.096s2.736 13.344 7.502 18.096c4.754 4.768 11.362 7.504 18.098 7.504s13.328-2.736 18.096-7.504c4.768-4.752 7.504-11.36 7.504-18.096s-2.736-13.344-7.504-18.096c-4.768-4.768-11.36-7.504-18.096-7.504zM640 704c-6.736 0-13.344 2.736-18.098 7.504-4.766 4.768-7.502 11.36-7.502 18.096s2.736 13.328 7.502 18.096c4.754 4.768 11.362 7.504 18.098 7.504s13.328-2.736 18.096-7.504c4.768-4.752 7.504-11.36 7.504-18.096s-2.736-13.344-7.504-18.096c-4.768-4.768-11.36-7.504-18.096-7.504zM742.4 652.8c-6.736 0-13.344 2.736-18.098 7.504-4.766 4.768-7.502 11.36-7.502 18.096s2.736 13.344 7.502 18.096c4.754 4.768 11.362 7.504 18.098 7.504s13.328-2.736 18.096-7.504c4.768-4.752 7.504-11.36 7.504-18.096s-2.736-13.344-7.504-18.096c-4.768-4.768-11.36-7.504-18.096-7.504zM844.8 806.4c-6.736 0-13.328 2.736-18.098 7.504-4.766 4.768-7.502 11.36-7.502 18.096s2.736 13.328 7.502 18.096c4.77 4.768 11.362 7.504 18.098 7.504s13.344-2.736 18.096-7.504c4.768-4.752 7.504-11.36 7.504-18.096s-2.736-13.344-7.504-18.096c-4.752-4.768-11.36-7.504-18.096-7.504zM844.8 908.8c-6.736 0-13.344 2.736-18.098 7.504-4.766 4.752-7.502 11.36-7.502 18.096s2.736 13.344 7.502 18.096c4.754 4.768 11.362 7.504 18.098 7.504s13.344-2.736 18.096-7.504c4.768-4.752 7.504-11.36 7.504-18.096s-2.736-13.344-7.504-18.096c-4.752-4.768-11.36-7.504-18.096-7.504zM844.8 704c-6.736 0-13.344 2.736-18.098 7.504-4.766 4.768-7.502 11.36-7.502 18.096s2.736 13.328 7.502 18.096c4.754 4.768 11.362 7.504 18.098 7.504s13.344-2.736 18.096-7.504c4.768-4.752 7.504-11.36 7.504-18.096s-2.736-13.344-7.504-18.096c-4.752-4.768-11.36-7.504-18.096-7.504zM844.8 601.6c-6.736 0-13.344 2.736-18.098 7.504-4.766 4.752-7.502 11.36-7.502 18.096s2.736 13.344 7.502 18.096c4.754 4.768 11.362 7.504 18.098 7.504s13.344-2.736 18.096-7.504c4.768-4.752 7.504-11.36 7.504-18.096s-2.736-13.344-7.504-18.096c-4.752-4.768-11.36-7.504-18.096-7.504z" />
<glyph unicode="&#xe620;" glyph-name="paint-roller" d="M896 755.2h-25.6v25.6c0 42.347-34.451 76.8-76.8 76.8h-716.8c-42.347 0-76.8-34.453-76.8-76.8v-102.4c0-42.347 34.453-76.8 76.8-76.8h716.8c42.349 0 76.8 34.453 76.8 76.8v25.6h25.6c14.115 0 25.6-11.485 25.6-25.6v-102.4c0-14.115-11.485-25.6-25.6-25.6h-409.6c-42.347 0-76.8-34.453-76.8-76.8v-81.203c-29.797-10.568-51.2-39.026-51.2-72.397v-256c0-42.347 34.453-76.8 76.8-76.8s76.8 34.453 76.8 76.8v256c0 33.371-21.403 61.829-51.2 72.397v81.203c0 14.115 11.485 25.6 25.6 25.6h409.6c42.347 0 76.8 34.453 76.8 76.8v102.4c0 42.347-34.453 76.8-76.8 76.8zM819.2 678.4c0-14.115-11.485-25.6-25.6-25.6h-716.8c-14.115 0-25.6 11.485-25.6 25.6v102.4c0 14.115 11.485 25.6 25.6 25.6h716.8c14.115 0 25.6-11.485 25.6-25.6v-102.4zM460.8 64c0-14.115-11.485-25.6-25.6-25.6s-25.6 11.485-25.6 25.6v256c0 14.115 11.485 25.6 25.6 25.6s25.6-11.485 25.6-25.6v-256z" />
<glyph unicode="&#xe621;" glyph-name="stamp" d="M896-64h-819.2c-14.138 0-25.6 11.461-25.6 25.6s11.462 25.6 25.6 25.6h819.2c14.139 0 25.6-11.461 25.6-25.6s-11.461-25.6-25.6-25.6zM896 243.2h-230.4c-27.754 0-51.2 35.17-51.2 76.8v257.893c61.166 35.464 102.4 101.659 102.4 177.307 0 112.928-91.874 204.8-204.8 204.8-112.928 0-204.8-91.872-204.8-204.8 0-75.65 41.232-141.845 102.4-177.307v-257.893c0-41.63-23.446-76.8-51.2-76.8h-281.6c-42.347 0-76.8-34.451-76.8-76.8v-51.2c0-42.349 34.453-76.8 76.8-76.8h819.2c42.349 0 76.8 34.451 76.8 76.8v51.2c0 42.349-34.451 76.8-76.8 76.8zM358.4 755.2c0 84.696 68.904 153.6 153.6 153.6s153.6-68.904 153.6-153.6-68.904-153.6-153.6-153.6-153.6 68.904-153.6 153.6zM460.8 320v236.88c16.37-4.229 33.528-6.48 51.2-6.48 17.674 0 34.83 2.251 51.2 6.48v-236.88c0-28.794 7.65-55.392 20.536-76.8h-143.472c12.886 21.408 20.536 48.006 20.536 76.8zM921.6 115.2c0-14.115-11.485-25.6-25.6-25.6h-819.2c-14.115 0-25.6 11.485-25.6 25.6v51.2c0 14.115 11.485 25.6 25.6 25.6h819.2c14.115 0 25.6-11.485 25.6-25.6v-51.2zM435.2 755.194c-2.832 0-5.709 0.474-8.531 1.47-13.331 4.712-20.317 19.338-15.605 32.667 10.27 29.059 37.741 56.53 66.803 66.805 13.334 4.714 27.957-2.274 32.669-15.602 4.712-13.331-2.272-27.957-15.602-32.669-14.502-5.128-30.472-21.096-35.597-35.595-3.715-10.51-13.592-17.077-24.138-17.077z" />
<glyph unicode="&#xe622;" glyph-name="tape" d="M409.6 601.6c-51.254 0-99.837 8.723-136.798 24.565-59.168 25.357-68.002 59.65-68.002 77.835s8.834 52.478 68.002 77.835c36.962 15.842 85.544 24.565 136.798 24.565s99.837-8.723 136.798-24.565c59.168-25.357 68.002-59.65 68.002-77.835s-8.834-52.478-68.002-77.835c-36.962-15.842-85.544-24.565-136.798-24.565zM409.6 755.2c-95.283 0-153.6-33.149-153.6-51.2s58.317-51.2 153.6-51.2 153.6 33.149 153.6 51.2-58.317 51.2-153.6 51.2zM1016.797 537.472c-3.454 3.57-81.41 83.189-201.379 131.141 2.488 11.61 3.782 23.421 3.782 35.387 0 70.89-44.357 136.544-124.899 184.869-76.45 45.869-177.558 71.131-284.701 71.131s-208.251-25.262-284.701-71.131c-80.542-48.325-124.899-113.979-124.899-184.869s44.357-136.544 124.899-184.869c9.216-5.53 18.8-10.754 28.701-15.675v-110.952c-43.387-21.573-79.715-48.754-105.669-79.237-31.357-36.829-47.931-78.763-47.931-121.267 0-70.89 44.357-136.544 124.899-184.869 76.45-45.87 177.558-71.131 284.701-71.131 97.085 0 191.050 21.251 264.584 59.84 61.379 32.211 105.73 74.926 128.216 122.701 18.267-13.915 37.189-29.733 56.686-47.434 68.197-61.917 118.824-124.874 119.323-125.499 4.955-6.192 12.366-9.61 19.995-9.61 2.832 0 5.693 0.47 8.469 1.445 10.259 3.598 17.126 13.285 17.126 24.157v558.069c0 6.645-2.582 13.029-7.203 17.803zM51.2 704c0 52.195 35.53 102.258 100.042 140.966 68.608 41.163 160.36 63.834 258.358 63.834s189.752-22.67 258.358-63.834c64.514-38.709 100.042-88.771 100.042-140.966 0-14.33-2.694-28.498-7.915-42.314-0.034-0.091-0.075-0.174-0.107-0.267-0.018-0.050-0.027-0.101-0.043-0.15-13.877-36.354-45.352-70.261-91.974-98.234-11.87-7.122-24.448-13.677-37.618-19.67-0.467-0.19-0.92-0.41-1.374-0.627-62.683-28.246-138.917-43.538-219.368-43.538-80.366 0-156.522 15.258-219.166 43.446-0.536 0.264-1.075 0.518-1.632 0.744-13.147 5.986-25.706 12.533-37.56 19.643-64.512 38.709-100.042 88.771-100.042 140.966zM409.6 448c73.040 0 143.269 11.75 204.8 33.755v-264.155c0-15.901-20.034-34.683-52.28-49.014-40.315-17.918-94.482-27.786-152.52-27.786s-112.205 9.867-152.52 27.786c-32.246 14.331-52.28 33.114-52.28 49.014v264.155c61.531-22.005 131.76-33.755 204.8-33.755zM650.394 41.178c-66.33-34.808-151.846-53.978-240.794-53.978-97.998 0-189.75 22.67-258.358 63.834-64.512 38.709-100.042 88.771-100.042 140.966 0 52.592 37.618 104.059 102.4 142.32v-116.72c0-38.082 29.365-72.102 82.686-95.802 46.717-20.765 108.269-32.198 173.314-32.198 65.046 0 126.597 11.434 173.314 32.198 40.189 17.862 66.76 41.59 77.414 68.499 29.102-4.622 62.483-18.736 99.248-41.878-15.942-40.707-54.034-78.302-109.182-107.242zM972.8 29.998c-20.946 22.749-47.992 50.557-78.779 78.544-86.651 78.774-163.328 123.291-228.421 132.733v262.181c9.901 4.923 19.485 10.146 28.701 15.675 47.648 28.589 82.624 63.242 103.251 101.456 89.309-36.034 154.32-92.261 175.248-111.779v-478.81z" />
<glyph unicode="&#xe623;" glyph-name="desk-tape" d="M955.32 549.024l0.016 0.048-577.677 193.637c-3.538 1.299-7.128 2.498-10.754 3.605l-0.368 0.123-0.003-0.013c-18.792 5.699-38.709 8.776-59.334 8.776-95.579 0-177.179-65.718-199.058-156.445-26.363 1.848-53.85 2.845-82.542 2.845-14.138 0-25.6-11.462-25.6-25.6 0-55.848 13.53-159.736 39.386-250.234 35.067-122.734 82.107-184.966 139.814-184.966l570.848-0.003c71.198 0.003 126.325 84.547 160.034 155.47 36.928 77.699 62.718 171.675 62.718 228.533 0 11.146-7.192 20.789-17.48 24.224zM307.2 704c15.395 0 30.264-2.286 44.298-6.522l8.938-2.997c58.534-21.694 100.365-78.093 100.365-144.082 0-12.922-1.582-25.578-4.694-37.854-15.36 6.722-31.373 13.366-48.098 19.819 1.048 5.902 1.592 11.92 1.592 18.035 0 56.464-45.936 102.4-102.4 102.4-25.792 0-50.435-9.622-69.39-27.096-11.88-10.95-20.867-24.376-26.443-39.181-16.64 2.81-33.8 5.283-51.506 7.373 18.858 64.27 78.206 110.104 147.339 110.104zM263.157 576.384c9.005 15.093 25.549 25.216 44.043 25.216 28.232 0 51.2-22.968 51.2-51.2 0-0.094-0.006-0.186-0.008-0.28-29.589 9.75-61.242 18.678-95.235 26.264zM863.837 318.245c-37.010-77.872-80.613-126.246-113.792-126.248l-0.258 0.002c-0.062 0-0.125 0-0.187 0l-570.4 0.002c-17.989 0-34.701 20.485-45.555 37.67-16.424 26.005-31.574 63.069-45.030 110.163-20.677 72.368-33.254 155.632-36.546 210.277 25.091-0.555 49.13-1.896 72.202-3.912 0.654-0.128 1.309-0.254 1.981-0.333 1.099-0.128 2.186-0.16 3.262-0.147 33.232-3.074 64.44-7.558 93.864-13.147 1.586-0.47 3.242-0.787 4.95-0.944 50.565-9.883 95.822-23.019 137.032-37.795 1.488-0.707 3.013-1.235 4.55-1.637 32.278-11.75 62.059-24.485 89.962-37.416 0.272-0.133 0.53-0.285 0.808-0.41 0.146-0.066 0.294-0.106 0.44-0.168 28.653-13.31 55.325-26.816 80.678-39.654 73.058-36.997 136.154-68.947 200.602-68.947 59.371 0 112.726 21.006 156.078 61.109-9.459-29.822-21.323-60.443-34.642-88.464zM881.67 463.122c-37.219-44.008-84.077-66.322-139.27-66.322-52.226 0-107.496 27.989-177.469 63.424-19.318 9.782-39.816 20.158-61.718 30.669 5.829 19.181 8.787 39.106 8.787 59.507 0 37.326-10.043 72.349-27.562 102.517l428.013-143.469c-6.686-12.965-16.76-29.749-30.781-46.326z" />
<glyph unicode="&#xe626;" glyph-name="palette" d="M332.8 550.4c-42.347 0-76.8 34.453-76.8 76.8s34.453 76.8 76.8 76.8 76.8-34.453 76.8-76.8-34.453-76.8-76.8-76.8zM332.8 652.8c-14.115 0-25.6-11.485-25.6-25.6s11.485-25.6 25.6-25.6 25.6 11.485 25.6 25.6-11.485 25.6-25.6 25.6zM179.2 396.8c-42.347 0-76.8 34.451-76.8 76.8 0 42.347 34.453 76.8 76.8 76.8s76.8-34.453 76.8-76.8c0-42.349-34.453-76.8-76.8-76.8zM179.2 499.2c-14.115 0-25.6-11.485-25.6-25.6s11.485-25.6 25.6-25.6 25.6 11.485 25.6 25.6-11.485 25.6-25.6 25.6zM537.6 601.6c-42.347 0-76.8 34.453-76.8 76.8s34.453 76.8 76.8 76.8c42.349 0 76.8-34.453 76.8-76.8s-34.451-76.8-76.8-76.8zM537.6 704c-14.115 0-25.6-11.485-25.6-25.6s11.485-25.6 25.6-25.6 25.6 11.485 25.6 25.6-11.485 25.6-25.6 25.6zM512-12.8c-135.947 0-263.949 44.744-360.427 125.987-47.341 39.866-84.562 86.392-110.627 138.288-27.17 54.094-40.946 111.603-40.946 170.925s13.776 116.83 40.947 170.925c26.066 51.896 63.286 98.422 110.627 138.288 96.477 81.245 224.478 125.987 360.426 125.987s263.949-44.742 360.427-125.987c47.341-39.866 84.562-86.392 110.627-138.288 27.17-54.094 40.946-111.603 40.946-170.925 0-94.829-42.234-128.618-81.758-128.618-33.035 0-67.040 23.126-93.296 63.448-16.571 25.461-34.080 39.48-49.301 39.48-5.082 0-10.088-1.518-15.306-4.642-28.771-17.226-11.758-63.736 0.946-89.928 41.061-84.669 44.467-158.632 9.85-213.891-42.002-67.051-137.262-101.050-283.134-101.050zM512 806.4c-254.086 0-460.8-172.262-460.8-384s206.714-384 460.8-384c69.928 0 126.646 8.144 168.578 24.203 33.24 12.731 57.184 30.504 71.166 52.827 31.298 49.963 10.461 116.962-12.53 164.368-49.166 101.374-3.214 143.006 18.826 156.202 13.206 7.902 27.203 11.91 41.605 11.91 23.435 0 58.456-10.886 92.211-62.747 19.309-29.656 39.211-40.181 50.386-40.181 18.277 0 30.558 31.114 30.558 77.418 0 211.738-206.714 384-460.8 384zM563.2 140.8c-56.464 0-102.4 45.936-102.4 102.4s45.936 102.4 102.4 102.4c56.464 0 102.4-45.936 102.4-102.4s-45.936-102.4-102.4-102.4zM563.2 294.4c-28.232 0-51.2-22.968-51.2-51.2s22.968-51.2 51.2-51.2 51.2 22.968 51.2 51.2-22.968 51.2-51.2 51.2z" />
<glyph unicode="&#xe628;" glyph-name="bucket" d="M870.4 627.2c0 0.314-0.008 0.637-0.013 0.958 0 0.003 0 0.008-0.002 0.011-0.278 15.691-7.49 38.533-39.421 60.104-20.294 13.707-48.59 25.803-84.106 35.95-26.992 7.712-57.362 14.080-90.104 19-25.664 48.25-125.83 216.776-272.755 216.776-57.386 0-87.424-27.826-102.517-51.168-24.613-38.066-31.275-96.933-20.064-175.667-12.363-2.742-24.218-5.725-35.48-8.942-35.515-10.147-63.813-22.243-84.104-35.95-31.934-21.573-39.144-44.416-39.422-60.106 0 0 0 0 0-0.002-0.005-0.323-0.013-0.648-0.013-0.965 0-4.587 0.592-9.83 2.23-15.498l96.31-577.859c3.494-20.971 18.87-44.752 36.56-56.544 6.339-4.227 67.194-41.299 248.899-41.299s242.56 37.072 248.899 41.299c17.69 11.792 33.064 35.57 36.562 56.544l96.309 577.859c1.638 5.667 2.23 10.91 2.23 15.498zM819.037 628.346l-0.694-4.163c-4.075-8.467-23.995-27.189-85.55-44.776-65.467-18.706-152.971-29.006-246.392-29.006-44.32 0-87.302 2.323-127.238 6.757-6.859 20.038-13.763 41.509-20.19 63.638-7.317 25.19-13.352 49.018-18.144 71.395 50.15 7.712 106.683 11.81 165.573 11.81 52.49 0 103.109-3.253 149.005-9.421 0.717-0.131 1.438-0.23 2.168-0.301 34.947-4.782 67.118-11.258 95.221-19.286 66.624-19.034 84.469-39.395 86.243-46.646zM614.4 320c0-14.115-11.485-25.6-25.6-25.6s-25.6 11.485-25.6 25.582c0.118 7.766 9.55 36.685 17.126 59.92 2.747 8.426 5.618 17.227 8.474 26.227 2.856-9 5.726-17.802 8.474-26.227 7.576-23.235 17.008-52.154 17.126-59.902zM324.478 881.032c12.25 18.944 31.163 27.768 59.522 27.768 96 0 172.384-99.426 209.104-158.104-34.202 2.966-70.066 4.504-106.704 4.504-61.824 0-121.435-4.378-174.578-12.619-8.886 63.843-4.766 111.506 12.656 138.451zM240.005 674.994c9.68 2.766 19.853 5.342 30.445 7.734 5.094-23.915 11.542-49.322 19.354-76.213 4.101-14.118 8.368-27.93 12.686-41.27-22.43 3.978-43.4 8.71-62.485 14.163-61.552 17.587-81.474 36.309-85.549 44.776l-0.694 4.163c1.774 7.25 19.622 27.611 86.243 46.646zM721.358 42.261c-1.144-6.859-8.389-18.134-14.216-22.195-3.098-1.8-59.101-32.866-220.742-32.866-161.653 0-217.653 31.069-220.741 32.866-5.827 4.059-13.070 15.334-14.214 22.195l-84.984 509.896c16.69-8.075 36.573-15.434 59.48-21.979 28.443-8.126 60.627-14.768 95.398-19.787 20.562-56.627 38.219-96.059 39.317-98.494 4.267-9.485 13.595-15.101 23.36-15.101 3.512 0 7.080 0.726 10.491 2.261 12.893 5.802 18.642 20.958 12.84 33.85-0.221 0.491-12.768 28.51-28.898 70.91 34.574-3.040 70.864-4.616 107.95-4.616 25.331 0 50.288 0.741 74.584 2.174-5.141-31.394-18.296-71.744-29.336-105.598-12.91-39.595-19.648-60.947-19.648-75.776 0-42.349 34.451-76.8 76.8-76.8s76.8 34.451 76.8 76.8c0 14.829-6.738 36.181-19.648 75.776-11.582 35.517-25.488 78.179-30.030 110.152 48.472 5.232 93.029 13.418 130.938 24.248 22.906 6.544 42.79 13.904 59.482 21.979l-84.982-509.894z" />
<glyph unicode="&#xe62b;" glyph-name="magic-wand" d="M588.8 601.6c-14.139 0-25.6 11.462-25.6 25.6 0 70.579-57.421 128-128 128-14.138 0-25.6 11.462-25.6 25.6s11.462 25.6 25.6 25.6c70.579 0 128 57.421 128 128 0 14.138 11.461 25.6 25.6 25.6s25.6-11.462 25.6-25.6c0-70.579 57.421-128 128-128 14.139 0 25.6-11.462 25.6-25.6s-11.461-25.6-25.6-25.6c-70.579 0-128-57.421-128-128 0-14.138-11.461-25.6-25.6-25.6zM527.426 780.8c25.11-15.136 46.238-36.264 61.374-61.376 15.136 25.112 36.264 46.24 61.376 61.376-25.112 15.136-46.24 36.264-61.376 61.376-15.136-25.112-36.264-46.24-61.374-61.376zM76.8 448c-14.138 0-25.6 11.462-25.6 25.6 0 14.115-11.485 25.6-25.6 25.6-14.138 0-25.6 11.462-25.6 25.6s11.462 25.6 25.6 25.6c14.115 0 25.6 11.485 25.6 25.6 0 14.138 11.462 25.6 25.6 25.6s25.6-11.462 25.6-25.6c0-14.115 11.485-25.6 25.6-25.6 14.138 0 25.6-11.462 25.6-25.6s-11.462-25.6-25.6-25.6c-14.115 0-25.6-11.485-25.6-25.6 0-14.138-11.462-25.6-25.6-25.6zM929.101 143.904l-541.995 541.994c-14.466 14.466-33.752 22.432-54.306 22.432s-39.84-7.966-54.306-22.432l-29.992-29.992c-14.466-14.466-22.432-33.752-22.432-54.306s7.966-39.84 22.432-54.306l541.994-541.992c14.464-14.466 33.75-22.434 54.304-22.434s39.84 7.965 54.306 22.434l29.994 29.992c14.466 14.464 22.432 33.752 22.432 54.304s-7.965 39.842-22.43 54.306zM284.706 619.702l29.992 29.992c4.795 4.795 11.224 7.435 18.102 7.435s13.307-2.64 18.102-7.435l73.691-73.693-66.197-66.197-73.691 73.691c-9.982 9.984-9.982 26.224 0 36.206zM892.894 71.498l-29.994-29.992c-4.794-4.794-11.224-7.434-18.099-7.434s-13.306 2.64-18.099 7.434l-432.102 432.099 66.197 66.195 432.098-432.099c9.981-9.981 9.981-26.222 0-36.203zM179.2 704c-14.138 0-25.6 11.462-25.6 25.6 0 42.347-34.453 76.8-76.8 76.8-14.138 0-25.6 11.462-25.6 25.6s11.462 25.6 25.6 25.6c42.347 0 76.8 34.453 76.8 76.8 0 14.138 11.462 25.6 25.6 25.6s25.6-11.462 25.6-25.6c0-42.347 34.453-76.8 76.8-76.8 14.138 0 25.6-11.462 25.6-25.6s-11.462-25.6-25.6-25.6c-42.347 0-76.8-34.453-76.8-76.8 0-14.138-11.462-25.6-25.6-25.6zM153.52 832c9.725-7.304 18.376-15.957 25.68-25.68 7.304 9.725 15.957 18.376 25.68 25.68-9.725 7.304-18.376 15.957-25.68 25.68-7.304-9.723-15.957-18.376-25.68-25.68zM179.2 192c-14.138 0-25.6 11.461-25.6 25.6 0 42.347-34.453 76.8-76.8 76.8-14.138 0-25.6 11.461-25.6 25.6s11.462 25.6 25.6 25.6c42.347 0 76.8 34.453 76.8 76.8 0 14.139 11.462 25.6 25.6 25.6s25.6-11.461 25.6-25.6c0-42.347 34.453-76.8 76.8-76.8 14.138 0 25.6-11.461 25.6-25.6s-11.462-25.6-25.6-25.6c-42.347 0-76.8-34.453-76.8-76.8 0-14.139-11.462-25.6-25.6-25.6zM153.52 320c9.725-7.302 18.376-15.957 25.68-25.68 7.304 9.723 15.957 18.374 25.68 25.68-9.725 7.302-18.376 15.957-25.68 25.68-7.304-9.723-15.957-18.378-25.68-25.68z" />
<glyph unicode="&#xe62c;" glyph-name="magnet" d="M869.987 887.779c-2.214 12.173-12.816 21.021-25.187 21.021h-204.8c-7.379 0-14.4-3.184-19.261-8.736s-7.090-12.933-6.114-20.246c0.509-3.824 50.974-383.478 50.974-483.018 0-86.131-67.469-153.6-153.6-153.6-84.696 0-153.6 68.904-153.6 153.6 0 96.163 50.469 479.189 50.979 483.046 0.966 7.31-1.267 14.683-6.128 20.229-4.861 5.544-11.877 8.725-19.251 8.725h-204.8c-12.371 0-22.974-8.848-25.187-21.021-2.107-11.59-51.613-286.226-51.613-490.979 0-53.622 10.842-106.254 32.226-156.435 20.686-48.544 50.168-92.398 87.627-130.349 78.176-79.198 181.077-122.816 289.747-122.816 108.672 0 211.573 43.618 289.749 122.816 37.458 37.95 66.941 81.805 87.627 130.349 21.382 50.181 32.224 102.813 32.224 156.435 0 204.754-49.504 479.389-51.613 490.979zM823.256 857.6c4.886-28.896 13.974-85.096 22.878-153.013l-157.771-0.512c-7.61 63.666-14.901 120.651-19.178 153.526h154.070zM200.742 857.6h154.104c-4.234-32.79-11.45-89.576-19.002-152.992l-158.043-0.514c8.923 68.139 18.045 124.539 22.941 153.506zM512 38.4c-194.272 0-358.4 164.126-358.4 358.4 0 80.307 8.101 173.312 17.832 256.074l158.418 0.514c-11.762-102.413-22.65-209.834-22.65-256.587 0-112.926 91.872-204.8 204.8-204.8 114.84 0 204.8 89.96 204.8 204.8 0 48.053-10.754 154.574-22.432 256.093l158.138 0.514c9.758-82.894 17.894-176.125 17.894-256.606 0-194.274-164.126-358.4-358.4-358.4z" />
<glyph unicode="&#xe62d;" glyph-name="pencil-ruler" d="M990.901 30.901l-365.898 365.899 329.696 329.694c29.944 29.944 29.944 78.667 0 108.611l-55.595 55.592c-14.464 14.466-33.75 22.432-54.304 22.432s-39.84-7.966-54.304-22.432l-329.696-329.694-365.899 365.898c-16.656 16.659-40.005 21.624-60.931 12.957-20.954-8.68-33.97-28.73-33.97-52.326v-874.731c0-42.349 34.453-76.8 76.8-76.8h874.731c23.597 0 43.646 13.018 52.325 33.97 8.669 20.926 3.706 44.274-12.955 60.931zM332.8 243.2h128c6.79 0 13.301 2.698 18.102 7.499l7.498 7.499 117.397-117.398h-373.397c-14.115 0-25.6 11.485-25.6 25.6v373.397l117.397-117.397-7.499-7.499c-4.8-4.8-7.498-11.312-7.498-18.101v-128c0-14.139 11.462-25.6 25.6-25.6zM450.197 294.4h-91.797v91.795l409.6 409.602 91.797-91.797-409.6-409.6zM844.8 861.93c6.878 0 13.306-2.64 18.101-7.435l55.594-55.592c9.981-9.982 9.981-26.222 0-36.203l-22.494-22.496-91.797 91.797 22.496 22.494c4.795 4.795 11.222 7.435 18.101 7.435zM956.555-10.435c-0.81-1.955-3.178-2.365-5.024-2.365h-874.731c-14.115 0-25.6 11.485-25.6 25.6v76.8h25.6c14.138 0 25.6 11.461 25.6 25.6s-11.462 25.6-25.6 25.6h-25.6v102.4h25.6c14.138 0 25.6 11.461 25.6 25.6s-11.462 25.6-25.6 25.6h-25.6v102.4h25.6c14.138 0 25.6 11.461 25.6 25.6s-11.462 25.6-25.6 25.6h-25.6v102.4h25.6c14.138 0 25.6 11.462 25.6 25.6s-11.462 25.6-25.6 25.6h-25.6v285.931c0 1.845 0.41 4.216 2.363 5.024 1.918 0.794 3.85-0.571 5.134-1.856l365.899-365.899-66.197-66.197-124.894 124.894c-24.395 24.394-45.518 19.37-53.467 16.078s-26.438-14.675-26.438-49.176v-384c0-42.347 34.453-76.8 76.8-76.8h384c34.499 0 45.883 18.49 49.176 26.438s8.317 29.072-16.078 53.466l-124.894 124.896 66.197 66.197 365.899-365.899c1.283-1.285 2.65-3.218 1.856-5.133z" />
<glyph unicode="&#xe62e;" glyph-name="pencil-ruler2" d="M998.4 652.8c0 141.158-114.84 256-256 256-38.574 0-75.664-8.374-110.234-24.89-2.701-1.29-5.048-3.010-7.050-5.013l-0.016 0.016-540.803-540.813c-3.917-3.917-6.458-8.998-7.24-14.482l-51.2-358.4c-1.139-7.976 1.542-16.026 7.242-21.722 4.834-4.834 11.362-7.499 18.099-7.499 1.203 0 2.413 0.085 3.622 0.258l358.4 51.2c5.483 0.782 10.565 3.323 14.482 7.24l540.413 540.4c0.014 0.013 0.027 0.027 0.038 0.038l0.357 0.357-0.005 0.005c2.002 2.002 3.71 4.362 5.002 7.061 16.518 34.576 24.893 71.666 24.893 110.243zM947.2 652.8c0-29.456-6.104-57.8-18.122-84.328l-58.89-58.89c-5.36 147.034-123.971 265.646-271.006 271.006l58.891 58.891c26.528 12.016 54.874 18.12 84.326 18.12 112.926 0 204.8-91.872 204.8-204.8zM102.659 140.794l21.68 151.766c9.675 1.222 19.464 1.84 29.261 1.84 127.043 0 230.4-103.357 230.4-230.4 0-9.797-0.624-19.584-1.846-29.261l-151.76-21.68c-0.141 70.374-57.36 127.594-127.734 127.734zM543.8 725.203c14.741 2.915 29.842 4.397 45 4.397 54.318 0 104.298-18.906 143.73-50.467l-398.83-398.83c-46.368 38.674-105.312 62.736-169.709 65.086l379.81 379.814zM369.904 244.099l398.829 398.83c31.562-39.432 50.467-89.411 50.467-143.73 0-15.155-1.483-30.258-4.397-45.002l-379.814-379.806c-2.349 64.395-26.413 123.339-65.085 169.707zM95.298 89.264c2.354 0.214 4.722 0.336 7.102 0.336 42.347 0 76.8-34.451 76.8-76.8 0-2.381-0.122-4.749-0.336-7.101l-97.494-13.928 13.928 97.493zM332.8 960h-256c-42.347 0-76.8-34.453-76.8-76.8v-512c0-14.139 11.462-25.6 25.6-25.6s25.6 11.461 25.6 25.6v128h76.8c14.138 0 25.6 11.462 25.6 25.6s-11.462 25.6-25.6 25.6h-76.8v51.2h25.6c14.138 0 25.6 11.462 25.6 25.6s-11.462 25.6-25.6 25.6h-25.6v51.2h76.8c14.138 0 25.6 11.462 25.6 25.6s-11.462 25.6-25.6 25.6h-76.8v51.2h25.6c14.138 0 25.6 11.462 25.6 25.6s-11.462 25.6-25.6 25.6h-25.6v25.6c0 14.115 11.485 25.6 25.6 25.6h256c14.115 0 25.6-11.485 25.6-25.6v-102.4c0-14.138 11.462-25.6 25.6-25.6s25.6 11.462 25.6 25.6v102.4c0 42.347-34.453 76.8-76.8 76.8z" />
<glyph unicode="&#xe62f;" glyph-name="compass" d="M537.6 294.4h-102.4c-14.138 0-25.6 11.461-25.6 25.6s11.462 25.6 25.6 25.6h102.4c14.139 0 25.6-11.461 25.6-25.6s-11.461-25.6-25.6-25.6zM793.6 396.8c-14.139 0-25.6-11.461-25.6-25.6v-25.6h-51.2c-14.139 0-25.6-11.461-25.6-25.6s11.461-25.6 25.6-25.6h51.2v-25.6c0-14.139 11.461-25.6 25.6-25.6s25.6 11.461 25.6 25.6v102.4c0 14.139-11.461 25.6-25.6 25.6zM766.509 21.411l-213.818 598.688c37.702 22.883 61.709 64.246 61.709 109.501 0 61.814-44.045 113.531-102.4 125.424v53.776h25.6c14.139 0 25.6 11.462 25.6 25.6s-11.461 25.6-25.6 25.6h-102.4c-14.138 0-25.6-11.462-25.6-25.6s11.462-25.6 25.6-25.6h25.6v-53.776c-58.355-11.893-102.4-63.61-102.4-125.424 0-45.253 24.006-86.618 61.709-109.499l-213.818-598.69c-0.987-2.765-1.491-5.677-1.491-8.611v-51.2c0-14.139 11.462-25.6 25.6-25.6s25.6 11.461 25.6 25.6v46.766l230.4 645.12 230.4-645.12v-46.766c0-14.139 11.461-25.6 25.6-25.6s25.6 11.461 25.6 25.6v51.2c0 2.934-0.504 5.846-1.491 8.611zM486.4 755.2c-10.819 0-20.469-6.8-24.109-16.99l-24.352-68.184c-17.555 14.331-28.339 36.077-28.339 59.574 0 42.347 34.453 76.8 76.8 76.8s76.8-34.453 76.8-76.8c0-23.498-10.784-45.243-28.341-59.573l-24.35 68.184c-3.64 10.189-13.29 16.989-24.109 16.989z" />
<glyph unicode="&#xe632;" glyph-name="bottle" d="M716.8 678.4c0 37-23.214 80.378-54 100.901l-54.387 36.258c3.733 4.45 5.987 10.179 5.987 16.442v102.4c0 14.138-11.461 25.6-25.6 25.6h-204.8c-14.138 0-25.6-11.462-25.6-25.6v-102.4c0-6.262 2.254-11.992 5.989-16.44l-54.387-36.258c-30.787-20.525-54.002-63.902-54.002-100.902v-51.2c0-19.654 7.43-37.602 19.618-51.2-12.187-13.598-19.618-31.546-19.618-51.2s7.43-37.602 19.618-51.2c-12.187-13.598-19.618-31.546-19.618-51.2s7.43-37.602 19.618-51.2c-12.187-13.598-19.618-31.546-19.618-51.2s7.43-37.602 19.618-51.2c-12.187-13.598-19.618-31.546-19.618-51.2s7.43-37.602 19.618-51.2c-12.187-13.598-19.618-31.546-19.618-51.2v-102.4c0-42.349 34.453-76.8 76.8-76.8h307.2c42.349 0 76.8 34.451 76.8 76.8v102.4c0 19.654-7.43 37.602-19.618 51.2 12.187 13.598 19.618 31.546 19.618 51.2s-7.43 37.602-19.618 51.2c12.187 13.598 19.618 31.546 19.618 51.2s-7.43 37.602-19.618 51.2c12.187 13.598 19.618 31.546 19.618 51.2s-7.43 37.602-19.619 51.2c12.189 13.598 19.619 31.546 19.619 51.2s-7.43 37.602-19.619 51.2c12.189 13.598 19.619 31.546 19.619 51.2v51.2zM409.6 908.8h153.6v-51.2h-153.6v51.2zM307.2 678.4c0 19.626 14.872 47.414 31.2 58.301l104.552 69.699h86.898l104.552-69.699c16.326-10.886 31.198-38.675 31.198-58.301v-51.2c0-14.115-11.485-25.6-25.6-25.6h-307.2c-14.115 0-25.6 11.485-25.6 25.6v51.2zM665.6 524.8c0-14.115-11.485-25.6-25.6-25.6h-307.2c-14.115 0-25.6 11.485-25.6 25.6s11.485 25.6 25.6 25.6h307.2c14.115 0 25.6-11.485 25.6-25.6zM665.6 422.4c0-14.115-11.485-25.6-25.6-25.6h-307.2c-14.115 0-25.6 11.485-25.6 25.6s11.485 25.6 25.6 25.6h307.2c14.115 0 25.6-11.485 25.6-25.6zM665.6 320c0-14.115-11.485-25.6-25.6-25.6h-307.2c-14.115 0-25.6 11.485-25.6 25.6s11.485 25.6 25.6 25.6h307.2c14.115 0 25.6-11.485 25.6-25.6zM665.6 217.6c0-14.115-11.485-25.6-25.6-25.6h-307.2c-14.115 0-25.6 11.485-25.6 25.6s11.485 25.6 25.6 25.6h307.2c14.115 0 25.6-11.485 25.6-25.6zM665.6 12.8c0-14.115-11.485-25.6-25.6-25.6h-307.2c-14.115 0-25.6 11.485-25.6 25.6v102.4c0 14.115 11.485 25.6 25.6 25.6h307.2c14.115 0 25.6-11.485 25.6-25.6v-102.4z" />
<glyph unicode="&#xe634;" glyph-name="drop-crossed" d="M861.658 800.066c-10.642 9.314-26.814 8.232-36.123-2.408l-141.216-161.389c-1.059 1.704-2.12 3.41-3.181 5.115-54.88 88.216-111.627 179.435-144.438 299.752-3.038 11.138-13.155 18.864-24.699 18.864s-21.661-7.726-24.699-18.864c-32.805-120.286-89.459-211.486-144.248-299.683-70.914-114.154-137.893-221.974-137.893-372.653 0-52.035 10.243-101.73 29.645-146.261l-126.070-144.082c-9.31-10.64-8.232-26.814 2.408-36.123 4.856-4.25 10.864-6.334 16.848-6.334 7.125 0 14.216 2.958 19.275 8.742l113.427 129.632c10.174-15.63 21.67-30.32 34.43-43.901 57.237-60.923 134.258-94.474 216.877-94.474 83.368 0 160.72 33.562 217.805 94.499 57.646 61.538 89.395 146.17 89.395 238.301 0 128.2-48.566 225.37-106.794 321.818l151.659 173.325c9.31 10.64 8.234 26.813-2.408 36.123zM256.36 268.8c0 136.070 60.33 233.186 130.184 345.635 44.87 72.232 90.95 146.406 125.459 237.355 34.546-90.989 80.709-165.197 125.659-237.453 3.834-6.165 7.634-12.277 11.405-18.358l-376.344-430.106c-10.603 31.598-16.363 66.226-16.363 102.926zM768 268.8c0-160.539-110.056-281.6-256-281.6-93.208 0-171.754 49.522-216.269 127.216l381.248 435.712c51.808-87.421 91.021-171.741 91.021-281.328z" />
<glyph unicode="&#xe635;" glyph-name="drop2" d="M512-64c-82.619 0-159.64 33.55-216.877 94.472-58.013 61.747-89.962 146.387-89.963 238.328 0 150.678 66.979 258.499 137.893 372.653 54.789 88.197 111.443 179.397 144.248 299.683 3.038 11.138 13.155 18.864 24.699 18.864s21.661-7.726 24.699-18.864c32.813-120.317 89.56-211.536 144.438-299.752 71-114.131 138.062-221.933 138.062-372.584 0-92.131-31.749-176.763-89.395-238.301-57.085-60.938-134.437-94.499-217.805-94.499zM512.003 851.792c-34.509-90.949-80.589-165.125-125.459-237.355-69.856-112.451-130.184-209.566-130.184-345.635 0-160.539 109.902-281.6 255.64-281.6 145.944 0 256 121.061 256 281.6 0 136.027-60.4 233.117-130.338 345.539-44.95 72.254-91.112 146.461-125.659 237.451zM512 89.6c-39.77 0-77.035 16.352-104.933 46.043-31.152 33.158-48.307 80.446-48.307 133.158 0 14.139 11.462 25.6 25.6 25.6s25.6-11.461 25.6-25.6c0-39.634 12.224-74.474 34.421-98.099 18.118-19.282 42.131-29.902 67.619-29.902 7.235 0 14.35 0.779 21.142 2.317 13.79 3.125 27.499-5.523 30.621-19.314 3.123-13.789-5.523-27.499-19.314-30.621-10.498-2.378-21.416-3.582-32.45-3.582z" />
<glyph unicode="&#xe636;" glyph-name="snow" d="M896 448h-120.211l39.52 63.232c7.493 11.99 3.848 27.784-8.141 35.277-11.995 7.498-27.784 3.846-35.278-8.141l-42.29-67.666-81.811 130.898h94.611c14.139 0 25.6 11.462 25.6 25.6s-11.461 25.6-25.6 25.6h-96.23l67.142 115.101c7.123 12.213 2.998 27.888-9.214 35.011-12.21 7.123-27.886 3-35.011-9.213l-68.242-116.987-41.536 66.456c-7.494 11.987-23.285 15.635-35.278 8.141-11.989-7.493-15.634-23.286-8.141-35.277l39.52-63.232h-138.022l39.52 63.232c7.494 11.99 3.848 27.784-8.141 35.277s-27.784 3.85-35.277-8.141l-41.536-66.458-68.243 116.989c-7.123 12.211-22.797 16.338-35.011 9.213-12.213-7.123-16.338-22.8-9.213-35.011l67.144-115.101h-96.23c-14.138 0-25.6-11.462-25.6-25.6s11.462-25.6 25.6-25.6h94.611l-81.811-130.898-42.291 67.666c-7.493 11.99-23.286 15.634-35.277 8.141-11.989-7.493-15.634-23.286-8.141-35.277l39.52-63.232h-120.211c-14.138 0-25.6-11.461-25.6-25.6s11.462-25.6 25.6-25.6h120.211l-39.52-63.232c-7.494-11.99-3.848-27.784 8.141-35.278 4.219-2.635 8.909-3.894 13.544-3.894 8.533 0 16.877 4.266 21.733 12.034l42.291 67.67 81.811-130.899h-94.611c-14.138 0-25.6-11.461-25.6-25.6s11.462-25.6 25.6-25.6h96.23l-67.142-115.101c-7.125-12.213-3-27.888 9.213-35.011 4.056-2.366 8.496-3.493 12.875-3.493 8.806 0 17.379 4.55 22.136 12.706l68.243 116.987 41.536-66.458c4.856-7.77 13.198-12.034 21.733-12.034 4.634 0 9.325 1.258 13.544 3.894 11.989 7.494 15.634 23.288 8.141 35.278l-39.52 63.232h138.022l-39.52-63.232c-7.493-11.99-3.848-27.784 8.141-35.278 4.221-2.635 8.91-3.894 13.544-3.894 8.534 0 16.878 4.266 21.734 12.034l41.536 66.458 68.242-116.987c4.758-8.158 13.328-12.706 22.136-12.706 4.379 0 8.821 1.126 12.875 3.493 12.213 7.123 16.338 22.798 9.214 35.011l-67.144 115.101h96.23c14.139 0 25.6 11.461 25.6 25.6s-11.461 25.6-25.6 25.6h-94.611l81.811 130.898 42.291-67.666c4.858-7.77 13.198-12.034 21.734-12.034 4.634 0 9.325 1.258 13.544 3.894 11.989 7.494 15.634 23.288 8.141 35.278l-39.52 63.232h120.21c14.139 0 25.6 11.461 25.6 25.6s-11.461 25.597-25.6 25.597zM587.411 243.2h-202.022l-112 179.2 112 179.2h202.022l112-179.2-112-179.2z" />
<glyph unicode="&#xe637;" glyph-name="snow2" d="M947.2 448h-91.795l58.698 58.698c9.998 9.998 9.998 26.206 0 36.205-9.997 9.997-26.206 9.997-36.203 0l-94.902-94.902h-234.794l153.6 153.6h142.997c14.139 0 25.6 11.462 25.6 25.6s-11.461 25.6-25.6 25.6h-91.797l84.299 84.298c9.998 9.998 9.998 26.206 0 36.205-9.997 9.997-26.206 9.997-36.203 0l-84.299-84.299v91.797c0 14.138-11.461 25.6-25.6 25.6s-25.6-11.462-25.6-25.6v-142.997l-153.6-153.6v234.792l94.901 94.902c9.998 9.998 9.998 26.206 0 36.205-9.997 9.997-26.206 9.997-36.203 0l-58.698-58.699v91.797c0 14.138-11.462 25.6-25.6 25.6s-25.6-11.462-25.6-25.6v-91.797l-58.698 58.699c-9.998 9.997-26.206 9.997-36.205 0-9.997-9.998-9.997-26.206 0-36.205l94.902-94.902v-234.792l-153.6 153.6v142.997c0 14.138-11.462 25.6-25.6 25.6s-25.6-11.462-25.6-25.6v-91.795l-84.298 84.298c-9.998 9.997-26.206 9.997-36.205 0-9.997-9.998-9.997-26.206 0-36.205l84.298-84.298h-91.795c-14.138 0-25.6-11.462-25.6-25.6s11.462-25.6 25.6-25.6h142.995l153.6-153.6h-234.792l-94.901 94.902c-9.998 9.997-26.206 9.997-36.205 0-9.997-9.998-9.997-26.206 0-36.205l58.699-58.698h-91.797c-14.138 0-25.6-11.461-25.6-25.6s11.462-25.6 25.6-25.6h91.797l-58.699-58.699c-9.997-9.997-9.997-26.206 0-36.203 5-4.998 11.55-7.498 18.102-7.498s13.102 2.499 18.102 7.499l94.901 94.901h234.792l-153.6-153.6h-142.995c-14.138 0-25.6-11.461-25.6-25.6s11.462-25.6 25.6-25.6h91.797l-84.299-84.299c-9.997-9.997-9.997-26.206 0-36.203 5-4.998 11.55-7.498 18.102-7.498s13.102 2.499 18.102 7.499l84.298 84.298v-91.797c0-14.139 11.462-25.6 25.6-25.6s25.6 11.461 25.6 25.6v142.997l153.6 153.6v-234.794l-94.902-94.901c-9.997-9.997-9.997-26.206 0-36.203s26.206-9.997 36.205 0l58.698 58.696v-91.795c0-14.139 11.462-25.6 25.6-25.6s25.6 11.461 25.6 25.6v91.795l58.699-58.698c4.998-4.998 11.549-7.498 18.101-7.498s13.102 2.499 18.101 7.499c9.998 9.997 9.998 26.206 0 36.203l-94.901 94.901v234.794l153.6-153.6v-142.997c0-14.139 11.461-25.6 25.6-25.6s25.6 11.461 25.6 25.6v91.797l84.299-84.299c4.998-4.998 11.549-7.498 18.101-7.498s13.102 2.499 18.101 7.499c9.998 9.997 9.998 26.206 0 36.203l-84.298 84.298h91.797c14.139 0 25.6 11.461 25.6 25.6s-11.461 25.6-25.6 25.6h-142.997l-153.6 153.6h234.794l94.901-94.901c5-5 11.55-7.499 18.102-7.499s13.102 2.499 18.101 7.499c9.998 9.997 9.998 26.206 0 36.203l-58.696 58.698h91.795c14.139 0 25.6 11.461 25.6 25.6s-11.461 25.6-25.6 25.6z" />
<glyph unicode="&#xe638;" glyph-name="fire" d="M723.315 928.963c-4.354 9.139-8.171 16.008-11.354 20.419-7.909 10.963-22.973 13.886-34.406 6.685-11.435-7.203-15.301-22.054-8.83-33.92 3.016-5.53 5.989-10.987 8.925-16.387 22.635-48.098 61.494-162.338 63.618-284.234-23.622 51.19-59.882 95.71-92.95 136.29-50.259 61.675-93.666 114.941-85.376 172.963 1.050 7.346-1.141 14.787-6.002 20.394s-11.917 8.827-19.338 8.827c-0.003 0-0.002 0-0.005 0-52.109 0-107.462-40.813-144.718-75.050-47.488-43.637-92.925-101.088-127.942-161.766-5.077-8.798-9.864-17.574-14.37-26.302 11.878 82.67 35.069 168.669 54.96 228.322 2.995 8.981 1.933 17.112-3.154 24.171-4.811 6.675-12.539 10.632-20.768 10.632-9.467 0-18.099-5.221-22.536-13.456-153.987-282.312-207.869-399.122-207.869-600.95 0-110.016 41.302-211.906 116.298-286.901 38.664-38.664 84.912-68.84 137.461-89.694 55.189-21.901 116.235-33.005 181.442-33.005s126.253 11.104 181.442 33.005c52.549 20.853 98.797 51.030 137.459 89.694 74.998 74.995 116.299 176.885 116.299 286.901 0 199.765-54.39 318.76-198.285 583.363zM309.28 697.594c32.018 55.478 75.114 110.027 118.242 149.659 30.371 27.909 59.499 47.326 83.643 56.16 5.192-64.706 50.211-119.952 97.464-177.939 83.781-102.813 162.91-199.952 54.917-364.101-23.082-28.565-51.266-53.213-84.445-73.85 32.283 58.869 43.195 127.848 28.73 196.090-10.867 51.269-35.518 98.304-71.288 136.022-38.235 40.32-88.837 69.229-146.333 83.602-12.085 3.019-24.582-3.091-29.621-14.48-5.037-11.387-1.15-24.749 9.211-31.658 33.186-22.123 49.405-97.856 32.744-152.893-11.414-37.707-34.016-56.827-67.174-56.83-5.894 0-12.208 0.606-18.766 1.805-22.552 4.123-39.358 16.008-51.382 36.338-1.594 2.694-3.085 5.518-4.493 8.448h0.237c-18.438 43.43-0.832 118.462 48.315 203.627zM486.4-12.8c-252.099 0-384 180.299-384 358.4 0 140.606 26.766 235.365 101.867 387.354-21.704-125.869-16.035-217.834 16.885-273.496 19.744-33.386 48.762-53.789 86.245-60.64 9.589-1.754 19-2.64 27.976-2.64 55.901 0.005 98.245 33.973 116.174 93.197 10.717 35.403 11.707 78.15 2.717 117.282-1.387 6.038-2.981 11.886-4.77 17.53 55.722-33.387 94.541-86.53 108.248-151.189 18.763-88.512-14.61-178.64-87.093-235.213-9.776-7.632-12.678-21.171-6.885-32.138 5.792-10.966 18.611-16.208 30.427-12.43 126.872 40.531 214.688 115.163 261.010 221.821 34.166 78.675 44.989 172.318 32.251 278.674 59.81-128.038 82.947-219.424 82.947-348.11 0-178.101-131.901-358.4-384-358.4z" />
<glyph unicode="&#xe639;" glyph-name="lighter" d="M896 499.2h-35.328l-43.786 88.186c-4.325 8.707-13.208 14.214-22.93 14.214h-205.157c-14.139 0-25.6-11.462-25.6-25.6v-76.8h-62.021l-197.41 341.922c-7.069 12.243-22.725 16.443-34.97 9.37l-177.362-102.4c-12.245-7.069-16.44-22.726-9.37-34.97l204.8-354.723c4.742-8.213 13.346-12.805 22.194-12.805 4.342 0 8.746 1.107 12.776 3.434l138.962 80.23v-416.458c0-14.139 11.462-25.6 25.6-25.6h409.6c14.139 0 25.6 11.461 25.6 25.6v460.8c0 14.139-11.461 25.6-25.6 25.6zM870.4 192h-51.2v153.6h51.2v-153.6zM614.4 550.4h163.686l25.422-51.2h-189.109v51.2zM318.408 406.168l-179.2 310.382 133.021 76.8 179.2-310.382-133.021-76.8zM512 38.4v409.6h332.638c0.061 0 0.12-0.006 0.181-0.006 0.035 0 0.074 0.006 0.11 0.006h25.47v-51.2h-76.8c-14.139 0-25.6-11.461-25.6-25.6v-204.8c0-14.139 11.461-25.6 25.6-25.6h76.8v-102.4h-358.4zM793.6 652.8c-38.41 0-57.083 18.142-65.984 33.363-16.923 28.938-14.094 72.59 8.654 133.448 15.293 40.915 34.219 74.72 35.018 76.139 4.534 8.061 13.064 13.050 22.312 13.050s17.778-4.989 22.312-13.050c0.798-1.419 19.725-35.224 35.018-76.139 22.749-60.859 25.578-104.51 8.654-133.448-8.901-15.221-27.574-33.363-65.984-33.363zM793.602 824.856c-3.232-7.454-6.502-15.461-9.581-23.73-23.218-62.379-15.211-83.984-12.205-89.12 1.282-2.19 4.685-8.006 21.784-8.006 17.101 0 20.506 5.821 21.787 8.011 3.021 5.165 11.050 26.891-12.418 89.674-3.021 8.085-6.214 15.894-9.368 23.171z" />
<glyph unicode="&#xe63d;" glyph-name="toilet-paper" d="M281.6 448c-14.394 0-41.325 6.962-59.973 53.582-10.851 27.128-16.827 62.648-16.827 100.018s5.976 72.89 16.827 100.018c18.648 46.621 45.579 53.582 59.973 53.582s41.325-6.962 59.973-53.582c10.851-27.128 16.827-62.648 16.827-100.018s-5.976-72.89-16.827-100.018c-18.648-46.621-45.579-53.582-59.973-53.582zM281.6 703.362c-8.378-6.597-25.6-41.672-25.6-101.762s17.222-95.165 25.6-101.762c8.378 6.597 25.6 41.672 25.6 101.762s-17.222 95.165-25.6 101.762zM742.4 908.8h-460.8c-100.486 0-179.2-134.938-179.2-307.2 0-8.566 0.203-17.037 0.586-25.406l-0.586-563.366c-0.010-8.877 4.581-17.125 12.13-21.797 4.114-2.546 8.786-3.83 13.472-3.83 3.912 0 7.834 0.898 11.446 2.702l90.952 45.475 90.952-45.475c7.206-3.603 15.691-3.603 22.898 0l90.95 45.475 90.952-45.475c7.206-3.603 15.691-3.603 22.898 0l90.95 45.475 90.952-45.475c7.936-3.97 17.362-3.544 24.907 1.12s12.141 12.906 12.141 21.778v284.578c87.939 20.693 153.6 146.891 153.6 304.222 0 172.262-78.714 307.2-179.2 307.2zM195.462 788.462c23.966 43.938 55.362 69.138 86.138 69.138s62.171-25.2 86.138-69.138c26.995-49.491 41.862-115.854 41.862-186.862s-14.867-137.37-41.862-186.862c-23.966-43.938-55.362-69.138-86.138-69.138s-62.171 25.2-86.138 69.138c-23.914 43.843-38.301 100.928-41.275 162.75l0.051 49.334c3.093 61.397 17.454 118.061 41.224 161.64zM651.448 86.898c-7.206 3.603-15.691 3.603-22.898 0l-90.95-45.475-90.952 45.475c-7.206 3.603-15.691 3.603-22.898 0l-90.95-45.475-90.952 45.475c-7.206 3.603-15.691 3.603-22.898 0l-65.309-32.653 0.342 329.741c32.266-55.611 77.198-89.586 127.616-89.586h435.2v-240.178l-65.352 32.675zM828.538 414.738c-23.966-43.938-55.363-69.138-86.138-69.138h-360.459c47.886 54.592 78.859 147.949 78.859 256s-30.973 201.408-78.859 256h360.459c30.774 0 62.171-25.2 86.138-69.138 26.995-49.491 41.862-115.854 41.862-186.862s-14.867-137.37-41.862-186.862z" />
<glyph unicode="&#xe63f;" glyph-name="umbrella" d="M794.133 781.333c-82.198 82.198-191.488 127.467-307.733 127.467-116.246 0-225.534-45.269-307.733-127.467s-127.467-191.486-127.467-307.733c0-14.139 11.462-25.6 25.6-25.6s25.6 11.461 25.6 25.6c0 42.347 34.453 76.8 76.8 76.8s76.8-34.453 76.8-76.8c0-14.139 11.462-25.6 25.6-25.6s25.6 11.461 25.6 25.6c0 42.347 34.453 76.8 76.8 76.8s76.8-34.453 76.8-76.8v-409.6c0-14.115-11.485-25.6-25.6-25.6s-25.6 11.485-25.6 25.6c0 14.139-11.462 25.6-25.6 25.6s-25.6-11.461-25.6-25.6c0-42.349 34.453-76.8 76.8-76.8s76.8 34.451 76.8 76.8v409.6c0 42.347 34.453 76.8 76.8 76.8s76.8-34.453 76.8-76.8c0-14.139 11.461-25.6 25.6-25.6s25.6 11.461 25.6 25.6c0 42.347 34.453 76.8 76.8 76.8s76.8-34.453 76.8-76.8c0-14.139 11.461-25.6 25.6-25.6s25.6 11.461 25.6 25.6c0 116.246-45.269 225.534-127.467 307.733zM793.6 601.6c-41.827 0-79.029-20.168-102.4-51.29-23.371 31.122-60.573 51.29-102.4 51.29s-79.029-20.168-102.4-51.29c-23.371 31.122-60.573 51.29-102.4 51.29s-79.029-20.168-102.4-51.29c-23.371 31.122-60.573 51.29-102.4 51.29-21.586 0-41.928-5.392-59.784-14.867 48.403 156.693 194.606 270.867 366.984 270.867s318.581-114.174 366.984-270.867c-17.858 9.475-38.198 14.867-59.784 14.867z" />
<glyph unicode="&#xe640;" glyph-name="umbrella2" d="M845.333 627.733c-82.198 82.198-191.488 127.467-307.733 127.467s-225.534-45.269-307.733-127.467-127.467-191.488-127.467-307.733c0-14.139 11.462-25.6 25.6-25.6s25.6 11.461 25.6 25.6c0 42.347 34.453 76.8 76.8 76.8s76.8-34.453 76.8-76.8c0-14.139 11.462-25.6 25.6-25.6s25.6 11.461 25.6 25.6c0 42.347 34.453 76.8 76.8 76.8s76.8-34.453 76.8-76.8v-307.2c0-14.115-11.485-25.6-25.6-25.6s-25.6 11.485-25.6 25.6c0 14.139-11.462 25.6-25.6 25.6s-25.6-11.461-25.6-25.6c0-42.347 34.453-76.8 76.8-76.8s76.8 34.453 76.8 76.8v307.2c0 42.347 34.453 76.8 76.8 76.8s76.8-34.453 76.8-76.8c0-14.139 11.461-25.6 25.6-25.6s25.6 11.461 25.6 25.6c0 42.347 34.453 76.8 76.8 76.8s76.8-34.453 76.8-76.8c0-14.139 11.461-25.6 25.6-25.6s25.6 11.461 25.6 25.6c0 116.245-45.269 225.534-127.467 307.733zM844.8 448c-41.827 0-79.029-20.168-102.4-51.29-23.371 31.122-60.573 51.29-102.4 51.29s-79.029-20.168-102.4-51.29c-23.371 31.122-60.573 51.29-102.4 51.29s-79.029-20.168-102.4-51.29c-23.371 31.122-60.573 51.29-102.4 51.29-21.586 0-41.928-5.392-59.784-14.867 48.403 156.693 194.606 270.867 366.984 270.867s318.581-114.174 366.984-270.867c-17.858 9.475-38.198 14.867-59.784 14.867zM895.979 652.795c-3.846 0-7.754 0.87-11.429 2.707-12.645 6.323-17.771 21.701-11.448 34.346l51.2 102.4c6.322 12.645 21.699 17.773 34.346 11.45s17.771-21.701 11.448-34.346l-51.2-102.4c-4.483-8.971-13.526-14.157-22.917-14.157zM691.179 755.195c-3.846 0-7.754 0.87-11.429 2.707-12.645 6.323-17.771 21.701-11.448 34.346l51.2 102.4c6.322 12.645 21.699 17.773 34.346 11.45s17.771-21.701 11.448-34.346l-51.2-102.4c-4.483-8.971-13.526-14.157-22.917-14.157zM332.781 755.195c-3.848 0-7.754 0.87-11.429 2.707-12.646 6.323-17.771 21.701-11.45 34.346l51.2 102.4c6.323 12.646 21.699 17.771 34.346 11.45 12.646-6.323 17.771-21.701 11.45-34.346l-51.2-102.4c-4.485-8.971-13.528-14.157-22.917-14.157zM76.781 601.595c-3.848 0-7.754 0.87-11.429 2.707-12.646 6.323-17.771 21.701-11.45 34.346l51.2 102.4c6.323 12.646 21.701 17.773 34.346 11.45s17.771-21.701 11.45-34.346l-51.2-102.4c-4.485-8.971-13.528-14.157-22.917-14.157zM179.181 806.395c-3.848 0-7.754 0.87-11.429 2.707-12.646 6.323-17.771 21.701-11.45 34.346l51.2 102.4c6.322 12.646 21.702 17.771 34.346 11.45 12.646-6.323 17.771-21.701 11.45-34.346l-51.2-102.4c-4.485-8.971-13.528-14.157-22.917-14.157zM844.779 806.395c-3.846 0-7.754 0.87-11.429 2.707-12.645 6.323-17.771 21.701-11.448 34.346l51.2 102.4c6.322 12.645 21.699 17.773 34.346 11.45s17.771-21.701 11.448-34.346l-51.2-102.4c-4.483-8.971-13.526-14.157-22.917-14.157zM537.579 806.395c-3.846 0-7.754 0.87-11.429 2.707-12.645 6.323-17.771 21.701-11.448 34.346l51.2 102.4c6.322 12.645 21.699 17.773 34.346 11.45s17.771-21.701 11.448-34.346l-51.2-102.4c-4.483-8.971-13.526-14.157-22.917-14.157z" />
<glyph unicode="&#xe641;" glyph-name="rain" d="M128 499.2c0 0 0.002 0 0 0-34.19 0-66.334 13.314-90.51 37.49-49.907 49.907-49.906 131.112 0 181.018 28.354 28.355 89.974 53.8 161.325 83.262 41.453 17.118 84.318 34.818 122.536 53.928 9.858 4.93 21.76 2.997 29.55-4.797 7.792-7.792 9.723-19.694 4.795-29.55-19.109-38.219-36.81-81.085-53.928-122.541-29.462-71.349-54.906-132.968-83.259-161.32-24.174-24.174-56.32-37.49-90.509-37.49zM280.514 779.714c-20.651-8.928-41.576-17.568-62.157-26.067-60.731-25.078-123.531-51.010-144.662-72.142-29.944-29.944-29.944-78.667 0-108.611 14.506-14.504 33.792-22.493 54.306-22.493s39.8 7.989 54.306 22.494c21.131 21.131 47.062 83.928 72.139 144.659 8.499 20.582 17.139 41.506 26.069 62.16zM793.6 38.4c-0.002 0 0.002 0 0 0-34.19 0-66.334 13.314-90.509 37.491-49.906 49.906-49.906 131.11 0.002 181.018 28.352 28.355 89.973 53.8 161.323 83.264 41.453 17.117 84.318 34.818 122.536 53.925 9.854 4.926 21.76 2.995 29.55-4.795 7.792-7.79 9.723-19.696 4.795-29.55-19.109-38.219-36.81-81.086-53.928-122.541-29.462-71.349-54.906-132.968-83.259-161.32-24.176-24.176-56.323-37.491-90.51-37.491zM946.112 318.912c-20.65-8.926-41.573-17.566-62.155-26.066-60.731-25.078-123.531-51.011-144.661-72.142-29.946-29.946-29.947-78.667-0.003-108.611 14.507-14.504 33.794-22.493 54.307-22.493s39.8 7.989 54.306 22.494c21.13 21.131 47.061 83.928 72.139 144.659 8.501 20.584 17.139 41.504 26.067 62.158zM691.2 601.6c-0.002 0 0.002 0 0 0-34.19 0-66.334 13.314-90.509 37.491-49.906 49.906-49.906 131.11 0.002 181.018 28.352 28.355 89.971 53.8 161.323 83.264 41.453 17.117 84.318 34.818 122.536 53.926 9.856 4.928 21.758 2.997 29.55-4.797 7.792-7.792 9.723-19.694 4.795-29.55-19.109-38.219-36.81-81.085-53.928-122.541-29.462-71.349-54.906-132.968-83.259-161.32-24.176-24.176-56.323-37.491-90.51-37.491zM843.712 882.114c-20.651-8.928-41.573-17.568-62.155-26.067-60.731-25.078-123.531-51.010-144.661-72.141-29.946-29.946-29.947-78.667-0.003-108.611 14.507-14.506 33.794-22.494 54.307-22.494s39.8 7.989 54.306 22.494c21.13 21.131 47.061 83.928 72.139 144.659 8.501 20.582 17.139 41.506 26.067 62.16zM230.4-64c0 0 0.002 0 0 0-34.19 0-66.334 13.314-90.51 37.491-49.907 49.906-49.906 131.11 0 181.018 28.352 28.355 89.973 53.8 161.325 83.262 41.453 17.117 84.318 34.819 122.536 53.926 9.858 4.93 21.76 2.995 29.55-4.795 7.792-7.79 9.723-19.696 4.795-29.55-19.109-38.219-36.81-81.086-53.928-122.541-29.462-71.349-54.906-132.968-83.259-161.32-24.174-24.176-56.32-37.491-90.509-37.491zM382.914 216.512c-20.651-8.926-41.574-17.566-62.157-26.066-60.731-25.078-123.531-51.011-144.662-72.142-29.944-29.946-29.946-78.667-0.002-108.611 14.507-14.504 33.794-22.493 54.307-22.493s39.8 7.989 54.306 22.494c21.131 21.131 47.062 83.928 72.139 144.659 8.499 20.584 17.139 41.504 26.069 62.158z" />
<glyph unicode="&#xe642;" glyph-name="tornado" d="M512 704c-131.642 0-255.659 10.846-349.21 30.541-46.797 9.851-83.931 21.52-110.373 34.682-34.782 17.312-52.418 38.434-52.418 62.778s17.635 45.466 52.416 62.776c26.443 13.162 63.578 24.83 110.373 34.682 93.552 19.696 217.57 30.542 349.211 30.542 62.6 0 123.608-2.443 181.33-7.262 14.090-1.176 24.558-13.552 23.381-27.64s-13.544-24.562-27.64-23.381c-56.31 4.699-115.886 7.083-177.070 7.083-122.019 0-238.096-9.603-326.85-27.040-109.504-21.515-130.429-45.098-133.571-49.76 3.142-4.662 24.067-28.245 133.57-49.76 88.755-17.437 204.832-27.040 326.851-27.040s238.098 9.603 326.85 27.040c116.019 22.795 132.605 47.912 133.958 50.387 0.333 13.848 11.664 24.973 25.592 24.973 14.139 0 25.6-11.462 25.6-25.6 0-24.344-17.635-45.466-52.418-62.776-26.442-13.162-63.576-24.83-110.371-34.682-93.552-19.696-217.571-30.542-349.211-30.542zM460.8 89.6c-65.045 0-126.597 11.434-173.314 32.198-53.322 23.699-82.686 57.72-82.686 95.802 0 14.139 11.462 25.6 25.6 25.6s25.6-11.461 25.6-25.6c0-15.901 20.034-34.683 52.28-49.014 40.315-17.918 94.482-27.786 152.52-27.786s112.205 9.867 152.52 27.786c32.246 14.331 52.28 33.114 52.28 49.014 0 14.139 11.461 25.6 25.6 25.6s25.6-11.461 25.6-25.6c0-38.082-29.366-72.102-82.686-95.802-46.717-20.765-108.269-32.198-173.314-32.198zM512-64c-114.842 0-204.8 56.226-204.8 128 0 14.139 11.462 25.6 25.6 25.6s25.6-11.461 25.6-25.6c0-36.325 63.082-76.8 153.6-76.8s153.6 40.475 153.6 76.8c0 14.139 11.461 25.6 25.6 25.6s25.6-11.461 25.6-25.6c0-71.774-89.96-128-204.8-128zM460.8 396.8c-104.733 0-203.507 10.958-278.125 30.856-87.242 23.266-131.475 55.949-131.475 97.144 0 14.138 11.462 25.6 25.6 25.6s25.6-11.462 25.6-25.6c0-4.805 15.862-26.978 93.467-47.672 70.437-18.784 164.526-29.128 264.933-29.128s194.496 10.344 264.933 29.128c77.605 20.694 93.467 42.867 93.467 47.672 0 14.138 11.461 25.6 25.6 25.6s25.6-11.462 25.6-25.6c0-41.195-44.234-73.878-131.475-97.144-74.618-19.898-173.39-30.856-278.125-30.856zM435.2 243.2c-84.734 0-164.755 11.117-225.318 31.306-88.835 29.611-107.482 68.928-107.482 96.694 0 14.139 11.462 25.6 25.6 25.6s25.6-11.461 25.6-25.6c0-8.29 15.147-29.014 72.472-48.122 55.482-18.494 129.75-28.678 209.128-28.678s153.646 10.184 209.128 28.678c57.325 19.107 72.472 39.832 72.472 48.122 0 14.139 11.461 25.6 25.6 25.6s25.6-11.461 25.6-25.6c0-27.766-18.646-67.083-107.482-96.694-60.563-20.189-140.582-31.306-225.318-31.306zM486.4 550.4c-124.896 0-242.586 10.867-331.389 30.602-104.307 23.179-155.011 55.038-155.011 97.398 0 14.138 11.462 25.6 25.6 25.6 14.038 0 25.438-11.301 25.598-25.302 2.202-6.766 29.338-29.842 124.394-49.758 84.139-17.63 194.518-27.339 310.808-27.339s226.669 9.709 310.808 27.338c95.056 19.917 122.19 42.994 124.394 49.758 0.16 14.003 11.56 25.304 25.598 25.304 14.139 0 25.6-11.462 25.6-25.6 0-42.36-50.704-74.219-155.013-97.398-88.802-19.734-206.491-30.602-331.387-30.602z" />
<glyph unicode="&#xe643;" glyph-name="wind" d="M998.4 192h-409.6c-14.139 0-25.6 11.461-25.6 25.6s11.461 25.6 25.6 25.6h409.6c14.139 0 25.6-11.461 25.6-25.6s-11.461-25.6-25.6-25.6zM947.2 448h-435.2c-84.696 0-153.6 68.904-153.6 153.6s68.904 153.6 153.6 153.6c75.946 0 141.309-56.586 152.042-131.622 2.002-13.997 14.978-23.717 28.966-21.717 13.995 2.002 23.718 14.971 21.717 28.966-6.914 48.333-31.059 92.73-67.99 125.013-37.296 32.605-85.146 50.56-134.734 50.56-112.928 0-204.8-91.872-204.8-204.8 0-61.109 26.912-116.043 69.498-153.6h-248.698c-42.347 0-76.8 34.453-76.8 76.8s34.453 76.8 76.8 76.8c27.334 0 52.83-14.72 66.539-38.414 7.078-12.237 22.739-16.421 34.978-9.339 12.238 7.080 16.419 22.739 9.339 34.978-22.829 39.462-65.307 63.976-110.856 63.976-70.579 0-128-57.421-128-128s57.421-128 128-128h819.2c14.139 0 25.6 11.461 25.6 25.6s-11.461 25.6-25.6 25.6zM230.4 89.6c-70.579 0-128 57.421-128 128s57.421 128 128 128h563.2c14.139 0 25.6-11.461 25.6-25.6s-11.461-25.6-25.6-25.6h-563.2c-42.347 0-76.8-34.453-76.8-76.8s34.453-76.8 76.8-76.8c27.336 0 52.834 14.72 66.542 38.418 7.080 12.237 22.738 16.419 34.979 9.341 12.238-7.080 16.419-22.741 9.339-34.978-22.83-39.466-65.31-63.981-110.861-63.981z" />
<glyph unicode="&#xe646;" glyph-name="sun-small" d="M486.4 652.8c-14.138 0-25.6 11.462-25.6 25.6v102.4c0 14.138 11.462 25.6 25.6 25.6s25.6-11.462 25.6-25.6v-102.4c0-14.138-11.462-25.6-25.6-25.6zM230.4 396.8h-102.4c-14.138 0-25.6 11.461-25.6 25.6s11.462 25.6 25.6 25.6h102.4c14.138 0 25.6-11.461 25.6-25.6s-11.462-25.6-25.6-25.6zM844.8 396.8h-102.4c-14.139 0-25.6 11.461-25.6 25.6s11.461 25.6 25.6 25.6h102.4c14.139 0 25.6-11.461 25.6-25.6s-11.461-25.6-25.6-25.6zM486.4 38.4c-14.138 0-25.6 11.461-25.6 25.6v102.4c0 14.139 11.462 25.6 25.6 25.6s25.6-11.461 25.6-25.6v-102.4c0-14.139-11.462-25.6-25.6-25.6zM486.4 550.4c70.579 0 128-57.421 128-128s-57.421-128-128-128-128 57.421-128 128 57.421 128 128 128zM486.4 601.6c-98.97 0-179.2-80.23-179.2-179.2 0-98.968 80.23-179.2 179.2-179.2 98.968 0 179.2 80.232 179.2 179.2 0 98.97-80.232 179.2-179.2 179.2v0zM654.619 590.619c-6.552 0-13.102 2.499-18.101 7.499-9.998 9.997-9.998 26.206 0 36.203l72.408 72.408c9.997 9.998 26.206 9.998 36.203 0 9.998-9.997 9.998-26.206 0-36.203l-72.408-72.408c-5-5-11.552-7.499-18.102-7.499zM318.181 590.619c-6.552 0-13.102 2.499-18.101 7.499l-72.408 72.408c-9.998 9.997-9.998 26.206 0 36.203s26.206 9.998 36.203 0l72.408-72.408c9.998-9.997 9.998-26.206 0-36.203-5-5-11.55-7.499-18.102-7.499zM727.027 130.573c-6.552 0-13.102 2.499-18.101 7.499l-72.408 72.408c-9.998 9.997-9.998 26.206 0 36.203 9.997 9.997 26.206 9.997 36.203 0l72.408-72.408c9.998-9.997 9.998-26.206 0-36.203-5-4.998-11.552-7.499-18.102-7.499zM245.773 130.573c-6.552 0-13.102 2.499-18.101 7.499-9.998 9.997-9.998 26.206 0 36.203l72.408 72.408c9.997 9.997 26.206 9.997 36.203 0s9.998-26.206 0-36.203l-72.408-72.408c-5-4.998-11.55-7.499-18.102-7.499z" />
<glyph unicode="&#xe647;" glyph-name="sun" d="M486.4 704c-14.138 0-25.6 11.462-25.6 25.6v153.6c0 14.138 11.462 25.6 25.6 25.6s25.6-11.462 25.6-25.6v-153.6c0-14.138-11.462-25.6-25.6-25.6zM179.2 396.8h-153.6c-14.138 0-25.6 11.461-25.6 25.6s11.462 25.6 25.6 25.6h153.6c14.138 0 25.6-11.461 25.6-25.6s-11.462-25.6-25.6-25.6zM947.2 396.8h-153.6c-14.139 0-25.6 11.461-25.6 25.6s11.461 25.6 25.6 25.6h153.6c14.139 0 25.6-11.461 25.6-25.6s-11.461-25.6-25.6-25.6zM486.4-64c-14.138 0-25.6 11.461-25.6 25.6v153.6c0 14.139 11.462 25.6 25.6 25.6s25.6-11.461 25.6-25.6v-153.6c0-14.139-11.462-25.6-25.6-25.6zM486.4 601.222c47.883 0 92.894-18.611 126.744-52.405 33.826-33.773 52.456-78.667 52.456-126.418s-18.63-92.645-52.456-126.416c-33.85-33.795-78.861-52.406-126.744-52.406-47.882 0-92.894 18.611-126.742 52.406-33.827 33.771-52.458 78.667-52.458 126.416s18.63 92.645 52.458 126.418c33.848 33.794 78.861 52.405 126.742 52.405zM486.4 652.422c-127.246 0-230.4-102.984-230.4-230.022s103.154-230.022 230.4-230.022 230.4 102.984 230.4 230.022c0 127.038-103.154 230.022-230.4 230.022v0zM281.976 626.824c-6.552 0-13.102 2.499-18.101 7.498l-108.611 108.611c-9.998 9.998-9.998 26.206 0 36.203s26.206 9.998 36.203 0l108.611-108.611c9.998-9.998 9.998-26.206 0-36.203-4.998-4.998-11.55-7.498-18.102-7.498zM173.365 58.166c-6.552 0-13.102 2.499-18.102 7.499-9.997 9.997-9.997 26.206 0 36.203l108.611 108.611c9.997 9.998 26.205 9.998 36.203 0s9.997-26.206 0-36.203l-108.611-108.611c-4.997-5-11.55-7.499-18.101-7.499zM690.824 626.824c-6.552 0-13.102 2.499-18.101 7.498-9.998 9.998-9.998 26.206 0 36.203l108.611 108.611c9.997 9.997 26.206 9.997 36.203 0 9.998-9.998 9.998-26.206 0-36.203l-108.611-108.611c-5-4.998-11.552-7.498-18.102-7.498zM799.434 58.166c-6.552 0-13.102 2.499-18.101 7.499l-108.611 108.611c-9.998 9.997-9.998 26.206 0 36.203 9.997 9.997 26.206 9.997 36.203 0l108.611-108.611c9.998-9.997 9.998-26.206 0-36.203-4.998-5-11.55-7.499-18.102-7.499z" />
<glyph unicode="&#xe649;" glyph-name="moon" d="M529.363-64c-141.402 0-274.341 55.066-374.325 155.054-99.978 99.981-155.038 232.914-155.038 374.309s55.061 274.325 155.038 374.306c52.005 52.008 112.88 91.899 180.934 118.563 10.115 3.965 21.635 1.118 28.739-7.098s8.248-20.018 2.854-29.443c-48.413-84.603-68.294-184.77-55.986-282.048 12.701-100.368 57.323-191.331 129.042-263.053 85.534-85.536 199.256-132.643 320.219-132.643 78.954 0 156.688 20.605 224.8 59.584 9.432 5.398 21.243 4.261 29.472-2.832s11.082-18.603 7.122-28.715c-26.666-68.050-66.55-128.923-118.554-180.931-99.982-99.987-232.918-155.053-374.318-155.053zM291.178 880.12c-36.315-20.861-69.75-46.496-99.893-76.638-90.309-90.315-140.043-210.394-140.043-338.118 0-127.726 49.734-247.806 140.045-338.12 90.304-90.309 210.368-140.043 338.077-140.043 127.702 0 247.768 49.734 338.072 140.042 30.131 30.133 55.76 63.558 76.616 99.861-58.099-22.602-120.309-34.355-183.206-34.355-134.656 0-261.254 52.438-356.467 147.656-79.824 79.827-129.491 181.082-143.63 292.818-10.568 83.51 0.202 168.958 30.43 246.899z" />
<glyph unicode="&#xe64a;" glyph-name="cloud" d="M819.52 140.8h-512.32c-169.39 0-307.2 137.81-307.2 307.2s137.81 307.2 307.2 307.2c82.034 0 160.589-32.917 218.104-90.866 4.483 9.947 10.048 19.469 16.643 28.403 28.87 39.112 75.093 62.462 123.653 62.462 84.696 0 153.6-68.904 153.6-153.6 0-17.957-3.118-35.523-9.096-52.051 3.126 0.142 6.267 0.211 9.416 0.211 112.75 0 204.48-91.73 204.48-204.48s-91.73-204.48-204.48-204.48zM307.2 704c-141.158 0-256-114.84-256-256s114.842-256 256-256h512.32c84.518 0 153.28 68.762 153.28 153.28s-68.762 153.28-153.28 153.28c-18.128 0-35.794-3.101-52.507-9.222-11.166-4.088-23.677 0.050-30.202 9.989s-5.349 23.064 2.842 31.685c18.28 19.235 28.347 44.307 28.347 70.589 0 56.464-45.936 102.4-102.4 102.4-32.858 0-62.912-15.187-82.456-41.667-11.798-15.986-18.669-34.707-19.867-54.138-0.67-10.85-8.117-20.096-18.574-23.054-10.462-2.966-21.648 1.006-27.906 9.891-5.632 7.997-11.73 15.701-18.126 22.902-48.587 54.696-118.374 86.066-191.47 86.066z" />
<glyph unicode="&#xe64b;" glyph-name="cloud-upload" d="M658.099 363.699l-102.4 102.4c-9.995 9.997-26.206 9.997-36.203 0l-102.4-102.4c-9.997-9.995-9.997-26.206 0-36.203s26.206-9.997 36.205 0l58.699 58.699v-219.795c0-14.139 11.461-25.6 25.6-25.6s25.6 11.461 25.6 25.6v219.795l58.701-58.699c4.997-4.997 11.547-7.496 18.099-7.496s13.102 2.499 18.099 7.501c10 9.995 10 26.203 0 36.198zM819.52 140.8h-179.52c-14.139 0-25.6 11.461-25.6 25.6s11.461 25.6 25.6 25.6h179.52c84.518 0 153.28 68.762 153.28 153.28s-68.762 153.28-153.28 153.28c-18.128 0-35.794-3.101-52.507-9.222-11.166-4.088-23.677 0.050-30.202 9.989s-5.349 23.064 2.842 31.685c18.28 19.235 28.347 44.307 28.347 70.589 0 56.464-45.936 102.4-102.4 102.4-32.858 0-62.912-15.187-82.456-41.667-11.798-15.986-18.669-34.707-19.867-54.138-0.67-10.85-8.117-20.093-18.574-23.054-10.462-2.966-21.648 1.006-27.906 9.891-5.632 7.997-11.73 15.702-18.126 22.902-48.587 54.696-118.374 86.066-191.47 86.066-141.158 0-256-114.84-256-256s114.842-256 256-256h128c14.138 0 25.6-11.461 25.6-25.6s-11.462-25.6-25.6-25.6h-128c-169.39 0-307.2 137.81-307.2 307.2s137.81 307.2 307.2 307.2c82.034 0 160.589-32.917 218.104-90.866 4.483 9.947 10.048 19.469 16.643 28.403 28.87 39.112 75.093 62.462 123.653 62.462 84.696 0 153.6-68.904 153.6-153.6 0-17.957-3.118-35.523-9.096-52.051 3.126 0.142 6.267 0.211 9.416 0.211 112.75 0 204.48-91.73 204.48-204.48s-91.73-204.48-204.48-204.48z" />
<glyph unicode="&#xe64c;" glyph-name="cloud-download" d="M658.099 261.299c-9.995 9.997-26.206 9.997-36.203 0l-58.696-58.694v219.795c0 14.139-11.461 25.6-25.6 25.6s-25.6-11.461-25.6-25.6v-219.795l-58.698 58.699c-9.998 9.995-26.206 9.995-36.205 0-9.997-9.997-9.997-26.208 0-36.205l102.4-102.4c5-4.998 11.552-7.499 18.102-7.499s13.102 2.499 18.099 7.501l102.4 102.4c10 9.995 10 26.203 0 36.198zM819.52 140.8h-128.32c-14.139 0-25.6 11.461-25.6 25.6s11.461 25.6 25.6 25.6h128.32c84.518 0 153.28 68.762 153.28 153.28s-68.762 153.28-153.28 153.28c-18.128 0-35.794-3.101-52.507-9.222-11.166-4.088-23.677 0.050-30.202 9.989s-5.349 23.064 2.842 31.685c18.28 19.235 28.347 44.307 28.347 70.589 0 56.464-45.936 102.4-102.4 102.4-32.858 0-62.912-15.187-82.456-41.667-11.798-15.986-18.669-34.706-19.867-54.138-0.67-10.85-8.117-20.093-18.574-23.054-10.462-2.966-21.648 1.006-27.906 9.891-5.632 7.998-11.73 15.702-18.126 22.904-48.587 54.694-118.374 86.064-191.47 86.064-141.158 0-256-114.84-256-256s114.842-256 256-256h76.8c14.138 0 25.6-11.461 25.6-25.6s-11.462-25.6-25.6-25.6h-76.8c-169.39 0-307.2 137.81-307.2 307.2s137.81 307.2 307.2 307.2c82.034 0 160.589-32.917 218.104-90.866 4.483 9.947 10.048 19.469 16.643 28.403 28.87 39.112 75.093 62.462 123.653 62.462 84.696 0 153.6-68.904 153.6-153.6 0-17.957-3.118-35.523-9.096-52.051 3.126 0.142 6.267 0.211 9.416 0.211 112.75 0 204.48-91.73 204.48-204.48s-91.73-204.48-204.48-204.48z" />
<glyph unicode="&#xe64d;" glyph-name="cloud-rain" d="M819.52 192h-512.32c-169.39 0-307.2 137.81-307.2 307.2s137.81 307.2 307.2 307.2c82.034 0 160.589-32.917 218.104-90.866 4.483 9.947 10.046 19.469 16.642 28.403 28.872 39.112 75.094 62.462 123.654 62.462 84.696 0 153.6-68.904 153.6-153.6 0-17.957-3.118-35.523-9.096-52.051 3.125 0.142 6.267 0.211 9.416 0.211 112.75 0 204.48-91.73 204.48-204.48s-91.73-204.48-204.48-204.48zM307.2 755.2c-141.158 0-256-114.84-256-256s114.842-256 256-256h512.32c84.518 0 153.28 68.762 153.28 153.28s-68.762 153.28-153.28 153.28c-18.128 0-35.794-3.101-52.507-9.222-11.166-4.088-23.677 0.050-30.202 9.989s-5.349 23.064 2.842 31.685c18.28 19.235 28.347 44.307 28.347 70.589 0 56.464-45.936 102.4-102.4 102.4-32.858 0-62.912-15.187-82.456-41.667-11.798-15.986-18.669-34.707-19.867-54.138-0.67-10.85-8.117-20.096-18.573-23.054-10.462-2.966-21.648 1.006-27.906 9.891-5.634 7.998-11.73 15.701-18.126 22.902-48.589 54.696-118.376 86.066-191.472 86.066zM128 38.4c-14.138 0-25.6 11.461-25.6 25.6v51.2c0 14.139 11.462 25.6 25.6 25.6s25.6-11.461 25.6-25.6v-51.2c0-14.139-11.462-25.6-25.6-25.6zM332.8 38.4c-14.138 0-25.6 11.461-25.6 25.6v51.2c0 14.139 11.462 25.6 25.6 25.6s25.6-11.461 25.6-25.6v-51.2c0-14.139-11.462-25.6-25.6-25.6zM537.6 38.4c-14.139 0-25.6 11.461-25.6 25.6v51.2c0 14.139 11.461 25.6 25.6 25.6s25.6-11.461 25.6-25.6v-51.2c0-14.139-11.461-25.6-25.6-25.6zM742.4 38.4c-14.139 0-25.6 11.461-25.6 25.6v51.2c0 14.139 11.461 25.6 25.6 25.6s25.6-11.461 25.6-25.6v-51.2c0-14.139-11.461-25.6-25.6-25.6zM947.2 38.4c-14.139 0-25.6 11.461-25.6 25.6v51.2c0 14.139 11.461 25.6 25.6 25.6s25.6-11.461 25.6-25.6v-51.2c0-14.139-11.461-25.6-25.6-25.6zM844.8-64c-14.139 0-25.6 11.461-25.6 25.6v51.2c0 14.139 11.461 25.6 25.6 25.6s25.6-11.461 25.6-25.6v-51.2c0-14.139-11.461-25.6-25.6-25.6zM640-64c-14.139 0-25.6 11.461-25.6 25.6v51.2c0 14.139 11.461 25.6 25.6 25.6s25.6-11.461 25.6-25.6v-51.2c0-14.139-11.461-25.6-25.6-25.6zM435.2-64c-14.138 0-25.6 11.461-25.6 25.6v51.2c0 14.139 11.462 25.6 25.6 25.6s25.6-11.461 25.6-25.6v-51.2c0-14.139-11.462-25.6-25.6-25.6zM230.4-64c-14.138 0-25.6 11.461-25.6 25.6v51.2c0 14.139 11.462 25.6 25.6 25.6s25.6-11.461 25.6-25.6v-51.2c0-14.139-11.462-25.6-25.6-25.6z" />
<glyph unicode="&#xe64e;" glyph-name="cloud-hailstones" d="M819.52 192h-512.32c-169.39 0-307.2 137.81-307.2 307.2s137.81 307.2 307.2 307.2c82.034 0 160.589-32.917 218.104-90.866 4.483 9.947 10.046 19.469 16.642 28.403 28.872 39.112 75.094 62.462 123.654 62.462 84.696 0 153.6-68.904 153.6-153.6 0-17.957-3.118-35.523-9.096-52.051 3.125 0.142 6.267 0.211 9.416 0.211 112.75 0 204.48-91.73 204.48-204.48s-91.73-204.48-204.48-204.48zM307.2 755.2c-141.158 0-256-114.84-256-256s114.842-256 256-256h512.32c84.518 0 153.28 68.762 153.28 153.28s-68.762 153.28-153.28 153.28c-18.128 0-35.794-3.101-52.507-9.222-11.166-4.088-23.677 0.050-30.202 9.989s-5.349 23.064 2.842 31.685c18.28 19.235 28.347 44.307 28.347 70.589 0 56.464-45.936 102.4-102.4 102.4-32.858 0-62.912-15.187-82.456-41.667-11.798-15.986-18.669-34.707-19.867-54.138-0.67-10.85-8.117-20.096-18.573-23.054-10.462-2.966-21.648 1.006-27.906 9.891-5.634 7.998-11.73 15.701-18.126 22.902-48.589 54.696-118.376 86.066-191.472 86.066zM153.6 89.6c0-28.277-22.923-51.2-51.2-51.2s-51.2 22.923-51.2 51.2c0 28.277 22.923 51.2 51.2 51.2s51.2-22.923 51.2-51.2zM563.2 89.6c0-28.277-22.923-51.2-51.2-51.2s-51.2 22.923-51.2 51.2c0 28.277 22.923 51.2 51.2 51.2s51.2-22.923 51.2-51.2zM972.8 89.6c0-28.277-22.923-51.2-51.2-51.2s-51.2 22.923-51.2 51.2c0 28.277 22.923 51.2 51.2 51.2s51.2-22.923 51.2-51.2zM358.4-12.8c0-28.277-22.923-51.2-51.2-51.2s-51.2 22.923-51.2 51.2c0 28.277 22.923 51.2 51.2 51.2s51.2-22.923 51.2-51.2zM768-12.8c0-28.277-22.923-51.2-51.2-51.2s-51.2 22.923-51.2 51.2c0 28.277 22.923 51.2 51.2 51.2s51.2-22.923 51.2-51.2z" />
<glyph unicode="&#xe64f;" glyph-name="cloud-snow" d="M819.2 294.4h-512c-169.39 0-307.2 137.81-307.2 307.2s137.81 307.2 307.2 307.2c82.483 0 160.917-33.286 218.149-90.933 24.093 53.744 78.16 90.933 140.251 90.933 84.696 0 153.6-68.904 153.6-153.6 0-17.71-3.024-35.056-8.818-51.386 2.931 0.125 5.87 0.186 8.818 0.186 112.926 0 204.8-91.872 204.8-204.8 0-112.926-91.874-204.8-204.8-204.8zM307.2 857.6c-141.158 0-256-114.842-256-256s114.842-256 256-256h512c84.696 0 153.6 68.904 153.6 153.6s-68.904 153.6-153.6 153.6c-17.576 0-34.797-2.936-51.181-8.726-11.101-3.926-23.451 0.234-29.922 10.074-6.469 9.842-5.389 22.827 2.616 31.464 17.595 18.987 27.286 43.701 27.286 69.589 0 56.464-45.936 102.4-102.4 102.4-53.997 0-98.888-42.162-102.198-95.986-0.667-10.858-8.125-20.107-18.594-23.064-10.474-2.958-21.664 1.027-27.912 9.93-47.957 68.326-126.347 109.12-209.696 109.12zM344.248 35.698l-56.606 28.302 56.606 28.302c12.646 6.322 17.771 21.699 11.45 34.346-6.323 12.646-21.702 17.771-34.346 11.448l-65.352-32.674v60.978c0 14.139-11.462 25.6-25.6 25.6s-25.6-11.461-25.6-25.6v-60.978l-65.352 32.675c-12.645 6.322-28.024 1.198-34.346-11.448-6.323-12.645-1.197-28.024 11.45-34.346l56.606-28.304-56.606-28.302c-12.646-6.322-17.771-21.699-11.45-34.346 4.486-8.971 13.526-14.158 22.917-14.158 3.846 0 7.755 0.872 11.429 2.709l65.352 32.675v-60.978c0-14.139 11.462-25.6 25.6-25.6s25.6 11.461 25.6 25.6v60.978l65.352-32.675c3.675-1.837 7.581-2.709 11.429-2.709 9.39 0 18.432 5.187 22.917 14.158 6.323 12.645 1.197 28.022-11.45 34.346zM958.648 35.698l-56.606 28.302 56.606 28.302c12.645 6.322 17.771 21.699 11.448 34.346-6.32 12.645-21.698 17.77-34.346 11.448l-65.35-32.674v60.978c0 14.139-11.461 25.6-25.6 25.6s-25.6-11.461-25.6-25.6v-60.978l-65.352 32.675c-12.645 6.323-28.024 1.195-34.346-11.448-6.323-12.645-1.197-28.024 11.448-34.346l56.608-28.304-56.606-28.302c-12.645-6.322-17.771-21.699-11.448-34.346 4.485-8.971 13.525-14.158 22.917-14.158 3.846 0 7.754 0.872 11.429 2.709l65.35 32.675v-60.978c0-14.139 11.461-25.6 25.6-25.6s25.6 11.461 25.6 25.6v60.978l65.352-32.675c3.675-1.837 7.581-2.709 11.429-2.709 9.39 0 18.434 5.187 22.917 14.158 6.323 12.645 1.197 28.022-11.45 34.346zM651.448 35.698l-56.606 28.302 56.606 28.302c12.645 6.322 17.771 21.699 11.448 34.346-6.32 12.645-21.698 17.77-34.346 11.448l-65.35-32.674v60.978c0 14.139-11.461 25.6-25.6 25.6s-25.6-11.461-25.6-25.6v-60.978l-65.352 32.675c-12.646 6.322-28.024 1.198-34.346-11.448s-1.197-28.024 11.45-34.346l56.606-28.304-56.606-28.302c-12.646-6.322-17.771-21.699-11.45-34.346 4.486-8.971 13.526-14.158 22.917-14.158 3.846 0 7.755 0.872 11.429 2.709l65.352 32.675v-60.978c0-14.139 11.461-25.6 25.6-25.6s25.6 11.461 25.6 25.6v60.978l65.352-32.675c3.675-1.837 7.581-2.709 11.429-2.709 9.39 0 18.434 5.187 22.917 14.158 6.323 12.645 1.197 28.022-11.45 34.346z" />
<glyph unicode="&#xe650;" glyph-name="cloud-windy" d="M844.768 296.213c-12.531 0-23.483 9.211-25.309 21.978-2.002 13.995 7.72 26.965 21.717 28.966 75.038 10.736 131.624 76.099 131.624 152.043 0 84.696-68.904 153.6-153.6 153.6-17.576 0-34.797-2.936-51.181-8.726-11.101-3.926-23.451 0.232-29.922 10.074-6.469 9.842-5.389 22.827 2.616 31.464 17.595 18.987 27.286 43.701 27.286 69.589 0 56.464-45.936 102.4-102.4 102.4-53.997 0-98.888-42.163-102.198-95.986-0.667-10.858-8.125-20.107-18.594-23.066-10.474-2.954-21.664 1.027-27.912 9.93-47.957 68.328-126.347 109.122-209.696 109.122-141.158 0-256-114.842-256-256 0-7.77 0.352-15.61 1.045-23.301 1.269-14.082-9.117-26.526-23.198-27.795-14.080-1.274-26.525 9.115-27.795 23.198-0.83 9.213-1.251 18.598-1.251 27.898 0 169.39 137.81 307.2 307.2 307.2 82.483 0 160.917-33.286 218.149-90.933 24.093 53.744 78.16 90.933 140.251 90.933 84.696 0 153.6-68.904 153.6-153.6 0-17.71-3.024-35.056-8.818-51.386 2.931 0.123 5.87 0.186 8.818 0.186 112.926 0 204.8-91.872 204.8-204.8 0-49.589-17.957-97.438-50.562-134.736-32.283-36.93-76.68-61.077-125.013-67.99-1.227-0.174-2.45-0.261-3.658-0.261zM742.4 345.6h-332.8c-56.464 0-102.4 45.936-102.4 102.4s45.936 102.4 102.4 102.4c48.435 0 90.627-34.374 100.32-81.736 2.835-13.853 16.368-22.786 30.213-19.947 13.851 2.834 22.782 16.362 19.947 30.213-14.547 71.080-77.834 122.67-150.48 122.67-84.696 0-153.6-68.904-153.6-153.6 0-39.306 14.846-75.205 39.219-102.4h-192.819c-28.232 0-51.2 22.968-51.2 51.2s22.968 51.2 51.2 51.2c21.669 0 41.075-13.714 48.293-34.126 4.712-13.33 19.334-20.312 32.669-15.603 13.33 4.712 20.315 19.339 15.603 32.669-14.434 40.829-53.24 68.261-96.565 68.261-56.464 0-102.4-45.936-102.4-102.4s45.936-102.4 102.4-102.4h640c14.139 0 25.6 11.461 25.6 25.6s-11.461 25.6-25.6 25.6zM204.8 38.4c-56.464 0-102.4 45.936-102.4 102.4s45.936 102.4 102.4 102.4h435.2c14.139 0 25.6-11.461 25.6-25.6s-11.461-25.6-25.6-25.6h-435.2c-28.232 0-51.2-22.968-51.2-51.2s22.968-51.2 51.2-51.2c21.667 0 41.074 13.714 48.291 34.125 4.714 13.331 19.339 20.312 32.67 15.602 13.33-4.714 20.315-19.341 15.602-32.67-14.437-40.826-53.242-68.256-96.563-68.256zM793.6 89.6h-307.2c-14.138 0-25.6 11.461-25.6 25.6s11.462 25.6 25.6 25.6h307.2c14.139 0 25.6-11.461 25.6-25.6s-11.461-25.6-25.6-25.6z" />
<glyph unicode="&#xe651;" glyph-name="sun-wind" d="M742.4 345.6h-332.8c-56.464 0-102.4 45.936-102.4 102.4s45.936 102.4 102.4 102.4c48.435 0 90.627-34.374 100.32-81.736 2.835-13.853 16.368-22.786 30.213-19.947 13.851 2.834 22.782 16.362 19.947 30.213-14.547 71.080-77.834 122.67-150.48 122.67-84.696 0-153.6-68.904-153.6-153.6 0-39.306 14.846-75.205 39.219-102.4h-192.819c-28.232 0-51.2 22.968-51.2 51.2s22.968 51.2 51.2 51.2c21.669 0 41.077-13.714 48.293-34.126 4.712-13.33 19.338-20.312 32.669-15.603 13.33 4.712 20.315 19.339 15.603 32.669-14.434 40.829-53.24 68.261-96.565 68.261-56.464 0-102.4-45.936-102.4-102.4s45.936-102.4 102.4-102.4h640c14.139 0 25.6 11.461 25.6 25.6s-11.461 25.6-25.6 25.6zM204.8 38.4c-56.464 0-102.4 45.936-102.4 102.4s45.936 102.4 102.4 102.4h435.2c14.139 0 25.6-11.461 25.6-25.6s-11.461-25.6-25.6-25.6h-435.2c-28.232 0-51.2-22.968-51.2-51.2s22.968-51.2 51.2-51.2c21.667 0 41.074 13.714 48.291 34.125 4.714 13.33 19.336 20.309 32.67 15.602 13.33-4.714 20.315-19.341 15.602-32.67-14.437-40.826-53.242-68.256-96.563-68.256zM793.6 89.6h-307.2c-14.138 0-25.6 11.461-25.6 25.6s11.462 25.6 25.6 25.6h307.2c14.139 0 25.6-11.461 25.6-25.6s-11.461-25.6-25.6-25.6zM817.376 396.792c-4.352 0-8.758 1.109-12.794 3.445-12.238 7.078-16.422 22.739-9.342 34.976 15.674 27.101 23.96 58.080 23.96 89.587 0 98.811-80.389 179.2-179.2 179.2-43.699 0-85.789-15.904-118.515-44.784-10.6-9.355-26.779-8.346-36.134 2.256-9.355 10.6-8.344 26.778 2.258 36.133 42.086 37.141 96.208 57.595 152.392 57.595 127.042 0 230.4-103.357 230.4-230.4 0-40.498-10.664-80.341-30.84-115.221-4.744-8.203-13.344-12.786-22.184-12.787zM640 806.4c-14.139 0-25.6 11.462-25.6 25.6v51.2c0 14.138 11.461 25.6 25.6 25.6s25.6-11.462 25.6-25.6v-51.2c0-14.138-11.461-25.6-25.6-25.6zM384 755.2c-6.552 0-13.102 2.499-18.102 7.498l-51.2 51.2c-9.997 9.998-9.997 26.206 0 36.205 9.998 9.997 26.206 9.997 36.205 0l51.2-51.2c9.997-9.998 9.997-26.206 0-36.205-5-4.998-11.55-7.498-18.102-7.498zM896 755.2c-6.552 0-13.102 2.499-18.101 7.498-9.998 9.998-9.998 26.206 0 36.205l51.2 51.2c9.997 9.997 26.206 9.997 36.203 0 9.998-9.998 9.998-26.206 0-36.205l-51.2-51.2c-5-4.998-11.55-7.498-18.102-7.498zM998.4 499.2h-51.2c-14.139 0-25.6 11.462-25.6 25.6s11.461 25.6 25.6 25.6h51.2c14.139 0 25.6-11.462 25.6-25.6s-11.461-25.6-25.6-25.6zM947.2 243.2c-6.552 0-13.102 2.499-18.101 7.499l-51.2 51.2c-9.998 9.997-9.998 26.206 0 36.203 9.997 9.997 26.206 9.997 36.203 0l51.2-51.2c9.998-9.997 9.998-26.206 0-36.203-5-5-11.55-7.499-18.102-7.499z" />
<glyph unicode="&#xe653;" glyph-name="cloud-sun" d="M819.2 345.6c-2.947 0-5.886-0.062-8.818-0.186 5.792 16.33 8.818 33.677 8.818 51.386 0 66.986-43.106 124.083-103.032 145.037-8.747 119.118-108.454 213.363-229.768 213.363-119.8 0-218.522-91.914-229.39-208.923-145.598-24.030-257.010-150.776-257.010-303.077 0-169.39 137.81-307.2 307.2-307.2h512c112.926 0 204.8 91.874 204.8 204.8s-91.874 204.8-204.8 204.8zM486.4 704c90.131 0 164.922-66.891 177.368-153.634-61.318-0.725-114.565-37.683-138.421-90.899-56.806 57.219-134.502 90.421-216.315 90.909 12.451 86.739 87.24 153.624 177.368 153.624zM819.2-12.8h-512c-141.158 0-256 114.84-256 256s114.842 256 256 256c83.349 0 161.741-40.794 209.696-109.12 6.251-8.906 17.443-12.89 27.912-9.93 10.469 2.957 17.926 12.206 18.594 23.064 3.31 53.824 48.202 95.986 102.198 95.986 56.464 0 102.4-45.936 102.4-102.4 0-25.886-9.691-50.6-27.288-69.587-8.005-8.638-9.085-21.624-2.616-31.464 6.47-9.842 18.824-13.995 29.922-10.075 16.387 5.79 33.608 8.726 51.182 8.726 84.696 0 153.6-68.904 153.6-153.6s-68.904-153.6-153.6-153.6zM486.4 806.4c-14.138 0-25.6 11.462-25.6 25.6v51.2c0 14.138 11.462 25.6 25.6 25.6s25.6-11.462 25.6-25.6v-51.2c0-14.138-11.462-25.6-25.6-25.6zM691.2 755.2c-6.552 0-13.102 2.499-18.101 7.498-9.998 9.998-9.998 26.206 0 36.205l51.2 51.2c9.997 9.997 26.206 9.997 36.203 0 9.998-9.998 9.998-26.206 0-36.205l-51.2-51.2c-5-4.998-11.55-7.498-18.102-7.498zM844.8 601.6h-51.2c-14.139 0-25.6 11.462-25.6 25.6s11.461 25.6 25.6 25.6h51.2c14.139 0 25.6-11.462 25.6-25.6s-11.461-25.6-25.6-25.6zM179.2 601.6h-51.2c-14.138 0-25.6 11.462-25.6 25.6s11.462 25.6 25.6 25.6h51.2c14.138 0 25.6-11.462 25.6-25.6s-11.462-25.6-25.6-25.6zM281.6 755.2c-6.552 0-13.102 2.499-18.102 7.498l-51.2 51.2c-9.997 9.998-9.997 26.206 0 36.205 9.998 9.997 26.206 9.997 36.205 0l51.2-51.2c9.997-9.998 9.997-26.206 0-36.205-5-4.998-11.55-7.498-18.102-7.498z" />
<glyph unicode="&#xe654;" glyph-name="cloud-lightning" d="M819.52 140.8h-179.52c-14.139 0-25.6 11.461-25.6 25.6s11.461 25.6 25.6 25.6h179.52c84.518 0 153.28 68.762 153.28 153.28s-68.762 153.28-153.28 153.28c-18.128 0-35.794-3.101-52.507-9.222-11.166-4.088-23.677 0.050-30.202 9.989s-5.349 23.064 2.842 31.685c18.28 19.235 28.347 44.307 28.347 70.589 0 56.464-45.936 102.4-102.4 102.4-32.858 0-62.912-15.187-82.456-41.667-11.798-15.986-18.669-34.707-19.867-54.138-0.67-10.85-8.117-20.093-18.573-23.054-10.462-2.966-21.648 1.006-27.906 9.891-5.634 7.998-11.73 15.702-18.126 22.902-48.589 54.696-118.376 86.066-191.472 86.066-141.158 0-256-114.84-256-256s114.842-256 256-256h128c14.138 0 25.6-11.461 25.6-25.6s-11.462-25.6-25.6-25.6h-128c-169.39 0-307.2 137.81-307.2 307.2s137.81 307.2 307.2 307.2c82.034 0 160.589-32.917 218.104-90.866 4.483 9.947 10.046 19.469 16.642 28.403 28.872 39.112 75.094 62.462 123.654 62.462 84.696 0 153.6-68.904 153.6-153.6 0-17.957-3.118-35.523-9.096-52.051 3.125 0.142 6.267 0.211 9.416 0.211 112.75 0 204.48-91.73 204.48-204.48s-91.73-204.48-204.48-204.48zM537.579 140.794c-3.846 0-7.754 0.872-11.429 2.709-12.645 6.322-17.771 21.699-11.448 34.346l58.275 116.552h-112.178c-8.872 0-17.112 4.594-21.776 12.141-4.666 7.549-5.088 16.971-1.122 24.907l76.8 153.6c6.322 12.643 21.699 17.771 34.346 11.448 12.645-6.322 17.771-21.699 11.448-34.346l-58.274-116.55h112.178c8.872 0 17.112-4.594 21.776-12.141 4.664-7.549 5.090-16.971 1.12-24.907l-76.8-153.6c-4.483-8.971-13.526-14.157-22.917-14.158z" />
<glyph unicode="&#xe65c;" glyph-name="cloud-database" d="M819.2 140.8h-76.8c-14.139 0-25.6 11.461-25.6 25.6s11.461 25.6 25.6 25.6h76.8c84.696 0 153.6 68.904 153.6 153.6s-68.904 153.6-153.6 153.6c-17.574 0-34.795-2.936-51.181-8.726-11.101-3.923-23.45 0.234-29.922 10.075-6.469 9.84-5.387 22.827 2.618 31.462 17.594 18.989 27.285 43.701 27.285 69.589 0 56.464-45.936 102.4-102.4 102.4-53.995 0-98.888-42.162-102.198-95.986-0.667-10.858-8.125-20.107-18.594-23.064-10.472-2.962-21.662 1.029-27.912 9.93-47.955 68.326-126.347 109.12-209.696 109.12-141.158 0-256-114.84-256-256 0-133.384 100.030-242.99 232.677-254.954 14.082-1.27 24.467-13.715 23.198-27.797-1.27-14.080-13.699-24.464-27.797-23.197-76.058 6.861-146.504 41.725-198.36 98.171-52.181 56.806-80.918 130.594-80.918 207.776 0 169.39 137.81 307.2 307.2 307.2 82.485 0 160.917-33.286 218.149-90.933 24.093 53.746 78.16 90.933 140.251 90.933 84.696 0 153.6-68.904 153.6-153.6 0-17.709-3.026-35.056-8.818-51.386 2.931 0.123 5.87 0.186 8.818 0.186 112.926 0 204.8-91.874 204.8-204.8s-91.874-204.8-204.8-204.8zM612.018 482.373c-27.128 10.851-62.65 16.827-100.018 16.827s-72.89-5.976-100.018-16.827c-46.621-18.65-53.582-45.579-53.582-59.973v-204.8c0-14.394 6.962-41.323 53.582-59.973 27.128-10.851 62.65-16.827 100.018-16.827s72.89 5.976 100.018 16.827c46.621 18.65 53.582 45.579 53.582 59.973v204.8c0 14.394-6.962 41.323-53.582 59.973zM614.4 320.968c-4.448-7.925-39.867-26.568-102.4-26.568-62.528 0-97.949 18.642-102.4 26.566v42.451c0.792-0.331 1.566-0.666 2.382-0.992 27.128-10.85 62.65-16.826 100.018-16.826s72.89 5.976 100.018 16.827c0.818 0.326 1.59 0.661 2.382 0.992v-42.451zM512 448c60.088 0 95.165-17.222 101.762-25.6-6.595-8.378-41.674-25.6-101.762-25.6s-95.165 17.222-101.76 25.6c6.595 8.378 41.672 25.6 101.76 25.6zM512 192c-62.422 0-97.851 18.586-102.4 26.534v42.485c0.792-0.331 1.566-0.666 2.382-0.992 27.128-10.851 62.65-16.827 100.018-16.827s72.89 5.976 100.018 16.827c0.818 0.326 1.59 0.661 2.382 0.992v-42.485c-4.55-7.949-39.978-26.534-102.4-26.534z" />
<glyph unicode="&#xe65d;" glyph-name="database" d="M925.040 877.621c-25.429 16.701-61.077 31.488-105.955 43.955-89.2 24.778-207.35 38.424-332.685 38.424s-243.485-13.646-332.686-38.424c-44.877-12.467-80.526-27.254-105.955-43.955-31.69-20.813-47.758-44.774-47.758-71.221v-614.4c0-26.446 16.069-50.41 47.758-71.222 25.429-16.701 61.077-31.488 105.955-43.954 89.202-24.779 207.352-38.424 332.686-38.424s243.485 13.645 332.686 38.426c44.878 12.466 80.526 27.253 105.955 43.954 31.69 20.811 47.758 44.774 47.758 71.221v614.4c0 26.446-16.069 50.408-47.76 71.221zM167.418 872.243c84.864 23.574 198.149 36.557 318.982 36.557s234.117-12.982 318.982-36.557c91.928-25.536 116.218-54.235 116.218-65.843s-24.29-40.307-116.218-65.843c-84.866-23.574-198.149-36.557-318.982-36.557s-234.118 12.982-318.982 36.557c-91.928 25.536-116.218 54.235-116.218 65.843s24.29 40.307 116.218 65.843zM805.382 126.157c-84.866-23.574-198.149-36.557-318.982-36.557s-234.117 12.982-318.982 36.557c-91.928 25.536-116.218 54.235-116.218 65.843v131.389c25.168-15.803 59.611-29.846 102.514-41.765 89.202-24.779 207.352-38.424 332.686-38.424s243.485 13.645 332.686 38.426c42.902 11.917 77.347 25.962 102.514 41.765v-131.39c0-11.608-24.29-40.307-116.218-65.843zM805.382 330.957c-84.866-23.574-198.149-36.557-318.982-36.557s-234.117 12.982-318.982 36.557c-91.928 25.536-116.218 54.235-116.218 65.843v131.39c25.168-15.803 59.611-29.848 102.514-41.766 89.202-24.778 207.352-38.424 332.686-38.424s243.485 13.646 332.686 38.424c42.902 11.918 77.347 25.963 102.514 41.766v-131.39c0-11.608-24.29-40.307-116.218-65.843zM805.382 535.757c-84.866-23.574-198.149-36.557-318.982-36.557s-234.117 12.982-318.982 36.557c-91.928 25.536-116.218 54.235-116.218 65.843v131.39c25.168-15.803 59.611-29.848 102.514-41.766 89.202-24.778 207.352-38.424 332.686-38.424s243.485 13.646 332.686 38.424c42.902 11.918 77.347 25.963 102.514 41.766v-131.39c0-11.608-24.29-40.307-116.218-65.843z" />
<glyph unicode="&#xe666;" glyph-name="server" d="M896 499.2h-51.2c-14.139 0-25.6 11.462-25.6 25.6s11.461 25.6 25.6 25.6h51.2c14.139 0 25.6-11.462 25.6-25.6s-11.461-25.6-25.6-25.6zM896 294.4h-51.2c-14.139 0-25.6 11.461-25.6 25.6s11.461 25.6 25.6 25.6h51.2c14.139 0 25.6-11.461 25.6-25.6s-11.461-25.6-25.6-25.6zM896 89.6h-51.2c-14.139 0-25.6 11.461-25.6 25.6s11.461 25.6 25.6 25.6h51.2c14.139 0 25.6-11.461 25.6-25.6s-11.461-25.6-25.6-25.6zM1024 576c0 32.592-12.864 80.173-29.286 108.325l-127.603 218.749c-18.931 32.453-61.539 56.926-99.11 56.926h-512c-37.571 0-80.181-24.474-99.11-56.926l-127.603-218.749c-16.422-28.152-29.286-75.733-29.286-108.325v-102.4c0-19.656 7.43-37.602 19.618-51.2-12.187-13.598-19.618-31.546-19.618-51.2v-102.4c0-19.654 7.43-37.602 19.618-51.2-12.187-13.598-19.618-31.546-19.618-51.2v-153.6c0-42.349 34.453-76.8 76.8-76.8h870.4c42.349 0 76.8 34.451 76.8 76.8v153.6c0 19.654-7.43 37.602-19.618 51.2 12.187 13.598 19.618 31.546 19.618 51.2v102.4c0 19.654-7.43 37.602-19.618 51.2 12.187 13.598 19.618 31.544 19.618 51.2v102.4zM972.8 371.2v-102.4c0-14.115-11.485-25.6-25.6-25.6h-870.4c-14.115 0-25.6 11.485-25.6 25.6v102.4c0 14.115 11.485 25.6 25.6 25.6h870.4c14.115 0 25.6-11.485 25.6-25.6zM76.8 448c-14.115 0-25.6 11.485-25.6 25.6v102.4c0 14.115 11.485 25.6 25.6 25.6h870.4c14.115 0 25.6-11.485 25.6-25.6v-102.4c0-14.115-11.485-25.6-25.6-25.6h-870.4zM201.114 877.275c9.624 16.499 35.786 31.525 54.886 31.525h512c19.101 0 45.261-15.026 54.886-31.525l127.603-218.749c1.086-1.862 2.162-3.88 3.216-6.022-2.147 0.182-4.314 0.296-6.506 0.296h-870.4c-2.194 0-4.358-0.114-6.504-0.296 1.054 2.141 2.13 4.16 3.216 6.022l127.602 218.749zM972.8 12.8c0-14.115-11.485-25.6-25.6-25.6h-870.4c-14.115 0-25.6 11.485-25.6 25.6v153.6c0 14.115 11.485 25.6 25.6 25.6h870.4c14.115 0 25.6-11.485 25.6-25.6v-153.6zM153.6 320c0-14.138-11.462-25.6-25.6-25.6s-25.6 11.462-25.6 25.6c0 14.138 11.462 25.6 25.6 25.6s25.6-11.462 25.6-25.6zM256 320c0-14.138-11.462-25.6-25.6-25.6s-25.6 11.462-25.6 25.6c0 14.138 11.462 25.6 25.6 25.6s25.6-11.462 25.6-25.6zM358.4 320c0-14.138-11.462-25.6-25.6-25.6s-25.6 11.462-25.6 25.6c0 14.138 11.462 25.6 25.6 25.6s25.6-11.462 25.6-25.6zM460.8 320c0-14.138-11.462-25.6-25.6-25.6s-25.6 11.462-25.6 25.6c0 14.138 11.462 25.6 25.6 25.6s25.6-11.462 25.6-25.6zM768 524.8c0-14.138-11.462-25.6-25.6-25.6s-25.6 11.462-25.6 25.6c0 14.138 11.462 25.6 25.6 25.6s25.6-11.462 25.6-25.6zM768 320c0-14.138-11.462-25.6-25.6-25.6s-25.6 11.462-25.6 25.6c0 14.138 11.462 25.6 25.6 25.6s25.6-11.462 25.6-25.6zM768 115.2c0-14.138-11.462-25.6-25.6-25.6s-25.6 11.462-25.6 25.6c0 14.138 11.462 25.6 25.6 25.6s25.6-11.462 25.6-25.6z" />
<glyph unicode="&#xe667;" glyph-name="shield" d="M486.4-64c-2.734 0-5.467 0.437-8.096 1.314-94.168 31.389-212.339 135.747-301.056 265.864-80.859 118.595-177.248 315.077-177.248 577.622 0 14.138 11.462 25.6 25.6 25.6 144.062 0 370.59 98.627 446.6 149.301 8.598 5.733 19.802 5.733 28.4 0 76.010-50.674 302.539-149.301 446.6-149.301 14.139 0 25.6-11.462 25.6-25.6 0-262.546-96.389-459.027-177.248-577.622-88.717-130.117-206.888-234.475-301.056-265.864-2.629-0.877-5.362-1.314-8.096-1.314zM51.501 756.040c5.795-237.094 93.813-415.136 168.050-524.018 90.566-132.83 197.422-216.558 266.85-243.227 69.427 26.669 176.283 110.397 266.848 243.227 74.237 108.882 162.254 286.923 168.050 524.018-83.368 5.232-176.208 33.917-242.189 58.354-72.611 26.893-145.854 61.078-192.709 89.67-46.854-28.592-120.098-62.778-192.709-89.67-65.982-24.437-158.821-53.123-242.19-58.354z" />
<glyph unicode="&#xe668;" glyph-name="shield-check" d="M486.4-64c-2.734 0-5.467 0.437-8.096 1.314-94.168 31.389-212.339 135.747-301.056 265.864-80.859 118.595-177.248 315.077-177.248 577.622 0 14.138 11.462 25.6 25.6 25.6 144.062 0 370.59 98.627 446.6 149.301 8.598 5.733 19.802 5.733 28.4 0 76.010-50.674 302.539-149.301 446.6-149.301 14.139 0 25.6-11.462 25.6-25.6 0-262.546-96.389-459.027-177.248-577.622-88.717-130.117-206.888-234.475-301.056-265.864-2.629-0.877-5.362-1.314-8.096-1.314zM51.501 756.040c5.795-237.094 93.813-415.136 168.050-524.018 90.566-132.83 197.422-216.558 266.85-243.227 69.427 26.669 176.283 110.397 266.848 243.227 74.237 108.882 162.254 286.923 168.050 524.018-83.368 5.232-176.208 33.917-242.189 58.354-72.611 26.893-145.854 61.078-192.709 89.67-46.854-28.592-120.098-62.778-192.709-89.67-65.982-24.437-158.821-53.123-242.19-58.354zM435.2 320c-6.552 0-13.102 2.499-18.102 7.499l-102.4 102.4c-9.997 9.997-9.997 26.206 0 36.203s26.206 9.997 36.205 0l84.298-84.298 237.899 237.898c9.997 9.997 26.206 9.997 36.203 0 9.998-9.998 9.998-26.206 0-36.205l-256-256c-5-4.998-11.55-7.498-18.102-7.498z" />
</font>
</defs>
</svg>
